<?xml version="1.0" encoding="utf-8"?>
<!-- Generator: Adobe Illustrator 23.0.0, SVG Export Plug-In . SVG Version: 6.00 Build 0)  -->
<svg version="1.1" id="레이어_1" xmlns="http://www.w3.org/2000/svg" xmlns:xlink="http://www.w3.org/1999/xlink" x="0px"
	 y="0px" viewBox="0 0 1020 668.2" style="enable-background:new 0 0 1020 668.2;" xml:space="preserve">
<style type="text/css">
	.st0{fill:#E6E6E6;}
	.st1{fill:#FFFFFF;}
	.st2{fill:#6C63FF;}
	.st3{opacity:0.1;fill:#6C63FF;enable-background:new    ;}
	.st4{opacity:0.5;}
	.st5{fill:#FFB9B9;}
	.st6{opacity:5.000000e-02;enable-background:new    ;}
	.st7{fill:#737A9D;}
	.st8{fill:#4C4C78;}
	.st9{opacity:0.1;enable-background:new    ;}
	.st10{opacity:0.2;fill:#FFFFFF;enable-background:new    ;}
	.st11{fill:#CBCDDA;}
	.st12{fill:#B96B6B;}
	.st13{opacity:0.1;}
	.st14{opacity:0.8;}
	.st15{opacity:0.1;fill:#FFFFFF;enable-background:new    ;}
	.st16{opacity:0.2;enable-background:new    ;}
	.st17{fill:none;stroke:#6C63FF;stroke-miterlimit:10;}
</style>
<title  _mstHash="484614" _mstTextHash="231244">healthy_habit</title>
<g>
	<rect x="75.6" y="37.6" class="st0" width="249.3" height="337.2"/>
	<rect x="84.4" y="49.5" class="st1" width="231.7" height="313.4"/>
	<path class="st0" d="M285.7,104.4H115.6c-2.9,0-5.2-2.3-5.2-5.2c0-2.9,2.3-5.2,5.2-5.2h170.1c2.9,0,5.2,2.3,5.2,5.2
		S288.5,104.4,285.7,104.4C285.7,104.4,285.7,104.4,285.7,104.4z"/>
	<path class="st0" d="M285.7,157.9H115.6c-2.9,0-5.2-2.3-5.2-5.2c0-2.9,2.3-5.2,5.2-5.2h170.1c2.9,0,5.2,2.3,5.2,5.2
		C290.9,155.6,288.5,157.9,285.7,157.9C285.7,157.9,285.7,157.9,285.7,157.9z"/>
	<path class="st0" d="M285.7,211.4H115.6c-2.9,0-5.2-2.3-5.2-5.2c0-2.9,2.3-5.2,5.2-5.2h170.1c2.9,0,5.2,2.3,5.2,5.2
		C290.9,209,288.5,211.4,285.7,211.4C285.7,211.4,285.7,211.4,285.7,211.4z"/>
	<path class="st0" d="M285.7,264.8H115.6c-2.9,0-5.2-2.3-5.2-5.2c0-2.9,2.3-5.2,5.2-5.2h170.1c2.9,0,5.2,2.3,5.2,5.2
		C290.9,262.5,288.5,264.8,285.7,264.8C285.7,264.8,285.7,264.8,285.7,264.8z"/>
	<path class="st0" d="M285.7,318.3H115.6c-2.9,0-5.2-2.3-5.2-5.2c0-2.9,2.3-5.2,5.2-5.2h170.1c2.9,0,5.2,2.3,5.2,5.2
		C290.9,316,288.5,318.3,285.7,318.3C285.7,318.3,285.7,318.3,285.7,318.3z"/>
	<path class="st2" d="M255.9,104.4H114.9c-2.9,0-5.2-2.3-5.2-5.2c0-2.9,2.3-5.2,5.2-5.2c0,0,0,0,0,0h141.1c2.9,0,5.2,2.3,5.2,5.2
		C261.1,102.1,258.8,104.4,255.9,104.4z"/>
	<path class="st2" d="M212.1,157.9h-97.3c-2.9,0-5.2-2.3-5.2-5.2c0-2.9,2.3-5.2,5.2-5.2h97.3c2.9,0,5.2,2.3,5.2,5.2
		C217.3,155.6,215,157.9,212.1,157.9C212.1,157.9,212.1,157.9,212.1,157.9z"/>
	<path class="st2" d="M158.7,211.4h-43.8c-2.9,0-5.2-2.3-5.2-5.2c0-2.9,2.3-5.2,5.2-5.2c0,0,0,0,0,0h43.8c2.9,0,5.2,2.3,5.2,5.2
		C163.9,209,161.5,211.4,158.7,211.4z"/>
	<path class="st2" d="M269.3,264.8H114.9c-2.9,0-5.2-2.3-5.2-5.2s2.3-5.2,5.2-5.2h154.5c2.9,0,5.2,2.3,5.2,5.2
		S272.2,264.8,269.3,264.8L269.3,264.8z"/>
	<path class="st2" d="M235.2,318.3H114.9c-2.9,0-5.2-2.3-5.2-5.2s2.3-5.2,5.2-5.2c0,0,0,0,0,0h120.3c2.9,0,5.2,2.3,5.2,5.2
		C240.4,316,238,318.3,235.2,318.3C235.2,318.3,235.2,318.3,235.2,318.3z"/>
</g>
<ellipse class="st3" cx="303.3" cy="619.8" rx="65.2" ry="19.8"/>
<ellipse class="st3" cx="753.4" cy="384.2" rx="174.2" ry="11.6"/>
<g class="st4">
	<path class="st2" d="M648.1,119.7L648.1,119.7c5,0,9.1,4.1,9.1,9.1v253.3l0,0h-18.2l0,0V128.8C639,123.8,643,119.7,648.1,119.7z"/>
	<path class="st2" d="M847.9,119.7L847.9,119.7c5,0,9.1,4.1,9.1,9.1v253.3l0,0h-18.3l0,0V128.8C838.8,123.8,842.9,119.7,847.9,119.7
		C847.9,119.7,847.9,119.7,847.9,119.7z"/>
	<path class="st2" d="M910.2,167.2L910.2,167.2c0,5-4.1,9.1-9.1,9.1H594.9c-5,0-9.1-4.1-9.1-9.1v0c0-5,4.1-9.1,9.1-9.1h306.2
		C906.1,158.1,910.2,162.2,910.2,167.2z"/>
	<path class="st2" d="M626.4,133L626.4,133c3.9,0,7.1,3.2,7.1,7.1v54.2c0,3.9-3.2,7.1-7.1,7.1h0c-3.9,0-7.1-3.2-7.1-7.1v-54.2
		C619.3,136.2,622.5,133,626.4,133z"/>
	<path class="st2" d="M612.1,139.4L612.1,139.4c3.9,0,7.1,3.2,7.1,7.1v41.4c0,3.9-3.2,7.1-7.1,7.1h0c-3.9,0-7.1-3.2-7.1-7.1v-41.4
		C605,142.6,608.2,139.4,612.1,139.4z"/>
	<path class="st2" d="M869.6,201.4L869.6,201.4c-3.9,0-7.1-3.2-7.1-7.1v-54.2c0-3.9,3.2-7.1,7.1-7.1h0c3.9,0,7.1,3.2,7.1,7.1v54.2
		C876.7,198.2,873.6,201.4,869.6,201.4z"/>
	<path class="st2" d="M883.9,195L883.9,195c-3.9,0-7.1-3.2-7.1-7.1v-41.4c0-3.9,3.2-7.1,7.1-7.1h0c3.9,0,7.1,3.2,7.1,7.1v41.4
		C891,191.8,887.8,195,883.9,195z"/>
</g>
<g class="st4">
	<path class="st2" d="M729.8,225.7h37.2c8.4,0,15.2,6.8,15.2,15.2v64l0,0h-67.7l0,0v-64C714.6,232.6,721.4,225.7,729.8,225.7z"/>
	<rect x="743.5" y="299.2" class="st2" width="9.9" height="33"/>
	<rect x="723.6" y="336.4" class="st2" width="9.9" height="33"/>
	<rect x="764.9" y="336.4" class="st2" width="9.9" height="33"/>
	<rect x="714.6" y="329.7" class="st2" width="67.7" height="9.1"/>
</g>
<ellipse class="st3" cx="603.8" cy="558.7" rx="371.5" ry="27.2"/>
<path class="st5" d="M700,461.7c0,0,25.6,11.6,38,11.6c0,0,13.2,3.3,20.6,6.6s36.3,4.9,36.3,4.9s33.8,12.4,38,18.2
	c4.1,5.8,16.5-20.6,16.5-20.6l-6.6-16.5l-124.6-23.9L700,461.7z"/>
<path class="st6" d="M700,461.7c0,0,25.6,11.6,38,11.6c0,0,13.2,3.3,20.6,6.6s36.3,4.9,36.3,4.9s33.8,12.4,38,18.2
	c4.1,5.8,16.5-20.6,16.5-20.6l-6.6-16.5l-124.6-23.9L700,461.7z"/>
<path class="st7" d="M826.3,498c0,0,15.7,20.6,9.1,33c-6.6,12.4-4.1,12.4,0,13.2c4.1,0.8,27.2,5.8,29.7-12.4
	c2.5-18.2,7.4-58.6,7.4-58.6l-33.9-3.3C838.7,469.9,847.8,500.5,826.3,498z"/>
<path class="st8" d="M631.5,434.4l71,33c0,0,22.3-17.3,20.6-26.4l-82.6-19.8L631.5,434.4z"/>
<path class="st9" d="M631.5,434.4l71,33c0,0,22.3-17.3,20.6-26.4l-82.6-19.8L631.5,434.4z"/>
<path class="st5" d="M929.5,477.4l-7.5,18.2l-17.3,4.1c-4.8-4-10-7.7-15.5-10.8c-9.3-5.4-21.6-10.6-33.2-9.8c0,0-46.2-7.4-48.7-10.8
	c0,0-29.7-6.6-36.3-5.8c-3.2,0.4-10-1.9-16.2-4.4c-6.7-2.7-12.7-5.5-12.7-5.5l21.5-33.8c2.5,1.1,5.1,2,7.7,2.7
	c8.2,2.4,23,5.5,44.3,5.5c34.7,0,82.6,35.5,82.6,35.5s0.5,0.2,1.3,0.4c3.6,1.1,13.8,3.6,18.5-0.4
	C923.7,457.5,929.5,477.4,929.5,477.4z"/>
<path class="st9" d="M929.5,477.4l-7.5,18.2l-17.3,4.1c-4.8-4-10-7.7-15.5-10.8c25.2,1.9,10.1-25.9,10.1-25.9h0.1
	c3.6,1.1,13.8,3.6,18.5-0.4C923.7,457.5,929.5,477.4,929.5,477.4z"/>
<path class="st7" d="M889.3,489.5c0,0,20,28,11.6,43.8c-8.4,15.8-5.3,15.8,0,16.8s34.7,7.4,37.8-15.8c2.4-17.8,0.3-51.9-0.8-66.7
	c-0.3-3.9-3.7-6.8-7.6-6.5c0,0-0.1,0-0.1,0l-29.2,2.7C901,463.8,916.7,492.6,889.3,489.5z"/>
<polygon class="st2" points="415.2,517 416,557.4 425.1,564 456.5,564 462.2,555.8 462.2,517 453.2,508.7 423.4,508.7 "/>
<path class="st10" d="M420.1,517.8c0,0,5.8,37.1,0,40.5l-4.1-0.8l-0.8-39.6L420.1,517.8z"/>
<path class="st2" d="M487.8,514.5l6.6-6.6h31.4l6.6,6.6c0,0,8.3,23.9,1.6,39.6l-7.5,7.4h-31.4l-7.4-6.6L487.8,514.5z"/>
<polygon class="st9" points="415.2,517 416,557.4 425.1,564 456.5,564 462.2,555.8 462.2,517 453.2,508.7 423.4,508.7 "/>
<path class="st9" d="M487.8,514.5l6.6-6.6h31.4l6.6,6.6c0,0,8.3,23.9,1.6,39.6l-7.5,7.4h-31.4l-7.4-6.6L487.8,514.5z"/>
<path class="st10" d="M495.2,516.2c0,0,6.6,28.9,0,38.8h-7.4v-40.4L495.2,516.2z"/>
<path class="st5" d="M462.2,377.5c0,0,3.3,32.2,3.3,36.3s-1.6,31.4,3.3,57.8c4.9,26.4-3.3,59.4-3.3,59.4h27.2l11.6-89.2l-8.3-47.1
	l-3.3-14.9L462.2,377.5z"/>
<path class="st6" d="M462.2,377.5c0,0,3.3,32.2,3.3,36.3s-1.6,31.4,3.3,57.8c4.9,26.4-3.3,59.4-3.3,59.4h27.2l11.6-89.2l-8.3-47.1
	l-3.3-14.9L462.2,377.5z"/>
<path class="st11" d="M457.3,295.7c0,0-36.3,0.8-7.4,61.1c0,0,7.4,24.8,7.4,28.9c0,4.1,37.1,4.1,41.2,0s-6.6-38-6.6-53.7
	S481.2,290.8,457.3,295.7z"/>
<path class="st6" d="M457.3,295.7c0,0-36.3,0.8-7.4,61.1c0,0,7.4,24.8,7.4,28.9c0,4.1,37.1,4.1,41.2,0s-6.6-38-6.6-53.7
	S481.2,290.8,457.3,295.7z"/>
<path class="st5" d="M413.5,260.2c0,0,31.4,33.8,57.8,9.1l-3.3,87.5c0,0-42.9-52-72.6-47.9L413.5,260.2z"/>
<path class="st9" d="M771.3,421.5c-1.3,9.7-5.2,30-16.5,36.6c-6.7-2.7-12.7-5.5-12.7-5.5l21.5-33.8
	C766.1,419.8,768.7,420.7,771.3,421.5z"/>
<path class="st8" d="M769.4,416.2c0,0-2.5,40.5-22.3,43.8l-119.7-21.6c-5.8-1.1-11.3-3.5-15.9-7.2c-4.8-3.8-10.8-9-14.3-13.7
	c-1.9-2.6-3-5-2.9-7.1c0.8-9.1,37.1-30.5,24.8-68.5c1.8-1.4,3.7-2.5,5.8-3.3c10.3-4.3,34.1-7.5,68.5,28.1
	C693.4,366.7,757,417.9,769.4,416.2z"/>
<polygon class="st2" points="445.7,520.3 446.6,560.7 455.6,567.3 487,567.3 492.8,559.1 492.8,520.3 483.7,512 454,512 "/>
<path class="st10" d="M450.7,521.1c0,0,5.8,37.1,0,40.5l-4.1-0.8l-0.8-39.6H450.7z"/>
<path class="st2" d="M536.5,517l6.6-6.6h31.4l6.6,6.6c0,0,8.3,23.9,1.6,39.6l-7.4,7.4H544l-7.4-6.6L536.5,517z"/>
<path class="st10" d="M544,518.6c0,0,6.6,28.9,0,38.8h-7.4V517L544,518.6z"/>
<path class="st2" d="M492.6,532.7h44.7c3.5,0,6.3,3.1,6.3,7l0,0c0,3.9-2.8,7-6.3,7h-44.7c-3.8,0-6.7-3.7-6.3-7.8l0,0
	C486.7,535.3,489.4,532.7,492.6,532.7z"/>
<path class="st9" d="M621.6,403.9c-8.8,6.2-18.1,10.2-24.4,13.7c-1.9-2.6-3-5-2.9-7.1c0.8-9.1,37.1-30.5,24.8-68.5
	c1.8-1.4,3.7-2.5,5.8-3.3c1.9,0,3.9-0.3,5.7-0.8C630.7,337.8,638.1,392.3,621.6,403.9z"/>
<path class="st11" d="M436.2,324.2c0,0,12.4,12.4,24.4,20.2c11,7.2-8.7-65.6-8.7-65.6s12.2-9.9,19.4-15.7c4.8-3.9,10.9-5.9,17.1-5.6
	c16.5,1.1,46.8,8,71.2,41.5c35.5,48.7,67.7,38.8,67.7,38.8s7.4,54.5-9.1,66c-16.5,11.6-34.7,15.7-31.4,22.3
	c3.3,6.6-14.9-32.2-56.1-38.8c-41.3-6.6-86.7-35.5-85.9-49.5C444.9,337.8,432.9,328.4,436.2,324.2z"/>
<path class="st9" d="M427.6,281.7c0-2.4-0.2-4.8-0.6-7.1c-10.8-5.4-9.3-12.7-9.3-12.7l-18.2,48.7c6.6-0.9,14,1,21.3,4.5
	C430.4,307.5,427.6,294.9,427.6,281.7z"/>
<circle class="st5" cx="391.2" cy="280.9" r="41.3"/>
<path class="st9" d="M353.7,290.2c-0.8,2.4-1.9,5-4.2,6.3c-2.7,1.6-6.4,0.8-8.8-1.3c-2.4-2.1-3.7-5.1-4.4-8.2
	c-1-4.5-0.8-9.1,0.4-13.5c1.1-3.7,2.9-7.2,3.7-11c0.8-4.1,0.4-8.3,1.3-12.3c1.3-5.5,4.9-10.1,8.4-14.4c2.2-3.4,5.7-5.7,9.7-6.5
	l17.3-5.2c3.3-1.1,6.6-1.9,10.1-2.4c4.4-0.4,8.8-0.1,13.1,1.1c3.4,0.9,6.6,2.3,9.5,4.2c2.9,2.1,5.4,4.7,7.5,7.6
	c9.1,11.9,14.3,31.5,23.8,43.2c-3.7,1.1-7.4-2.7-11.2-1.5c-0.5,0.2-1.1,0.3-1.7,0.1c-0.6-0.3-1-0.8-1.2-1.4
	c-3.3-5.7-8.4-10.1-14.6-12.5c-4.6-1.7-10.8-1.7-13.3,2.5c-1.7,2.8-1,6.4-0.6,9.7c0.4,3.3,0.4,7.2-2.2,9.2c-1.4,1-3.1,1.5-4.8,1.6
	c-8,1.1-16.2,0.3-23.9-2.3c-2.7-0.9-5.4-3.7-8.3-2.8C355.6,281.7,354.8,286.9,353.7,290.2z"/>
<path class="st12" d="M352.8,289.3c-0.8,2.4-1.9,5-4.2,6.3c-2.7,1.6-6.4,0.8-8.8-1.3c-2.4-2.1-3.7-5.1-4.4-8.2
	c-1-4.5-0.8-9.1,0.4-13.5c1.1-3.7,2.9-7.2,3.7-11c0.8-4.1,0.4-8.3,1.3-12.3c1.3-5.5,4.9-10.1,8.4-14.4c2.2-3.4,5.7-5.7,9.7-6.5
	l17.3-5.2c3.3-1.1,6.6-1.9,10.1-2.4c4.4-0.4,8.8-0.1,13.1,1.1c3.4,0.9,6.6,2.3,9.5,4.2c2.9,2.1,5.4,4.7,7.5,7.6
	c9.1,11.9,14.3,31.5,23.8,43.2c-3.7,1.1-7.4-2.7-11.2-1.5c-0.5,0.2-1.1,0.3-1.7,0.1c-0.6-0.3-1-0.8-1.2-1.4
	c-3.3-5.7-8.4-10.1-14.6-12.5c-4.6-1.7-10.8-1.7-13.3,2.5c-1.7,2.8-1,6.4-0.6,9.7c0.4,3.3,0.4,7.2-2.2,9.2c-1.4,1-3.1,1.5-4.8,1.6
	c-8,1.1-16.2,0.3-23.9-2.3c-2.7-0.9-5.4-3.7-8.3-2.8C354.7,280.7,353.8,286,352.8,289.3z"/>
<g class="st13">
	<path d="M454.7,276.6l-2.8,2.3c0,0,11.6,42.7,12,59.5C469.8,336.7,458.5,291,454.7,276.6z"/>
	<path d="M619.9,397.3c-16.5,11.6-34.7,15.7-31.4,22.3c3.3,6.6-14.9-32.2-56.1-38.8c-38.7-6.2-81.1-32-85.5-46.8
		c-6.2-5.3-10.7-9.8-10.7-9.8c-3.3,4.1,8.7,13.6,8.7,13.6c-0.8,14,44.6,42.9,85.9,49.5c41.3,6.6,59.4,45.4,56.1,38.8
		c-3.3-6.6,14.9-10.8,31.4-22.3c4.7-3.3,7.5-10.1,9-18.2C625.7,390.8,623.3,394.9,619.9,397.3z"/>
</g>
<path class="st5" d="M536.5,476.5c-2.5,3.3-4.1,37.1-4.1,37.1s9.9,48.7-20.6,43.8c-30.5-4.9-4.1-39.6-4.1-39.6l-4.1-47.9
	c-15.7-41.2-12.4-71-12.4-71l-2.9-27l-1.2-11l35.5-8.3c-1,1.3-0.6,9.3,0.3,18.7c1.4,14.7,3.8,32.5,3.8,32.5
	C534.1,412.1,539,473.2,536.5,476.5z"/>
<path class="st9" d="M486.2,278.4c0,0-36.3,0.8-7.4,61.1c0,0,7.4,24.8,7.4,28.9c0,4.1,37.1,4.1,41.2,0c4.1-4.1-6.6-38-6.6-53.7
	C520.8,299,510.1,273.4,486.2,278.4z"/>
<path class="st9" d="M522.8,371.4c-7.7,2.1-26.6,2.3-34.6,0.6l-1.2-11l35.5-8.3C521.5,354,522,362,522.8,371.4z"/>
<path class="st11" d="M484.5,278.4c0,0-36.3,0.8-7.4,61.1c0,0,7.4,24.8,7.4,28.9c0,4.1,37.1,4.1,41.2,0c4.1-4.1-6.6-38-6.6-53.7
	C519.2,299,508.5,273.4,484.5,278.4z"/>
<g class="st4">
	<polygon class="st2" points="246.9,407.6 220.6,408.2 216.3,414.1 216.3,434.5 221.7,438.2 246.9,438.2 252.3,432.3 252.3,413 	"/>
	<path class="st10" d="M246.4,410.9c0,0-24.1,3.8-26.3,0l0.5-2.7l25.8-0.5L246.4,410.9z"/>
	<path class="st2" d="M249.1,466.7l4.3,4.3v20.4l-4.3,4.3c0,0-15.6,5.4-25.8,1.1l-4.8-4.8v-20.4l4.3-4.8H249.1z"/>
	<path class="st10" d="M248,471.5c0,0-18.8,4.3-25.2,0v-4.8h26.3L248,471.5z"/>
	<path class="st2" d="M238.9,438.1v29c-0.1,2.4-2.2,4.2-4.6,4.1l0,0c-2.4,0.1-4.4-1.7-4.6-4.1v-29c0-2.5,2.4-4.4,5.1-4.1l0,0
		C237,434.1,238.8,435.9,238.9,438.1z"/>
	<polygon class="st2" points="289,408.5 262.7,409 258.4,414.9 258.4,435.3 263.8,439 289,439 294.4,433.1 294.4,413.8 	"/>
	<path class="st10" d="M288.5,411.7c0,0-24.1,3.8-26.3,0l0.5-2.7l25.8-0.5V411.7z"/>
	<path class="st2" d="M291.2,467.5l4.3,4.3v20.4l-4.3,4.3c0,0-15.6,5.4-25.8,1.1l-4.8-4.8v-20.4l4.3-4.8L291.2,467.5z"/>
	<path class="st10" d="M290.1,472.3c0,0-18.8,4.3-25.2,0v-4.8h26.3L290.1,472.3z"/>
	<path class="st2" d="M281,438.9v29c-0.1,2.4-2.2,4.2-4.6,4.1l0,0c-2.4,0.1-4.4-1.7-4.6-4.1v-29c0-2.5,2.4-4.4,5.1-4.1l0,0
		C279.1,434.9,280.8,436.7,281,438.9z"/>
	<polygon class="st2" points="342.6,424 321,424.4 317.4,429.3 317.4,446.1 321.9,449.2 342.6,449.2 347,444.3 347,428.4 	"/>
	<path class="st10" d="M342.2,426.6c0,0-19.9,3.1-21.6,0l0.4-2.2l21.2-0.4L342.2,426.6z"/>
	<path class="st2" d="M344.4,472.6l3.5,3.5v16.8l-3.5,3.5c0,0-12.8,4.4-21.2,0.9l-4-4v-16.8l3.5-4H344.4z"/>
	<path class="st10" d="M343.5,476.5c0,0-15.5,3.5-20.8,0v-4h21.6L343.5,476.5z"/>
	<path class="st2" d="M336,449v23.9c-0.1,2-1.8,3.5-3.8,3.4l0,0c-2,0.1-3.7-1.4-3.8-3.4V449c0.1-2,1.8-3.5,3.8-3.4
		c0.1,0,0.2,0,0.3,0l0,0C334.5,445.8,335.9,447.2,336,449z"/>
	<polygon class="st2" points="377.3,424.7 355.6,425.1 352.1,430 352.1,446.8 356.5,449.8 377.3,449.8 381.7,445 381.7,429.1 	"/>
	<path class="st10" d="M376.8,427.3c0,0-19.9,3.1-21.6,0l0.4-2.2l21.2-0.4L376.8,427.3z"/>
	<path class="st2" d="M379,473.3l3.5,3.5v16.8l-3.5,3.5c0,0-12.8,4.4-21.2,0.9l-4-4v-16.8l3.5-4L379,473.3z"/>
	<path class="st10" d="M378.2,477.2c0,0-15.5,3.5-20.8,0v-4H379L378.2,477.2z"/>
	<path class="st2" d="M370.6,449.7v23.9c-0.1,2-1.8,3.5-3.8,3.4l0,0c-2,0.1-3.7-1.4-3.8-3.4v-23.9c0.1-2,1.8-3.5,3.8-3.4
		c0.1,0,0.2,0,0.3,0l0,0C369.1,446.5,370.5,447.9,370.6,449.7z"/>
</g>
<g class="st14">
	<path class="st2" d="M284.7,568.7c0,0-12.7-4.3-18.8,6.9c-3.3,6.2-3.2,13.6,0.3,19.7c4,7.3,12.3,16.7,28,15.9
		c13.3-0.7,17.7-10.9,18.9-20.3c1.5-11.4-6.6-21.9-18-23.4c-3.3-0.4-6.6-0.1-9.7,1L284.7,568.7z"/>
	<path class="st15" d="M268.8,596.2c-3.4-6.1-3.5-13.5-0.3-19.7c6.1-11.2,18.8-6.9,18.8-6.9l0.7-0.2c4.8-1.8,10.2-1.6,14.9,0.3
		c-5.3-3.2-11.8-3.8-17.6-1.7l-0.7,0.2c0,0-12.7-4.3-18.8,6.9c-3.3,6.2-3.2,13.6,0.3,19.7c2.7,4.8,7.2,10.5,14.3,13.6
		C275.6,605.5,271.5,601.3,268.8,596.2z"/>
	<path class="st16" d="M278.1,574c0,0,4.7,3.7,16.1,0"/>
	<path class="st2" d="M277.1,547.1c0,0,8.1,21.9,7.4,27.6l6.4-0.7c0,0-10.8-19.2-8.1-26.9L277.1,547.1z"/>
	<path class="st16" d="M277.1,547.1c0,0,8.1,21.9,7.4,27.6l6.4-0.7c0,0-10.8-19.2-8.1-26.9L277.1,547.1z"/>
	<path class="st2" d="M310.1,548.9c0,0-12.7-6.5-18.4-1.1s-6.6,19.1-6.6,19.1S305.9,569.8,310.1,548.9z"/>
	<path class="st15" d="M310.1,548.9c0,0-12.7-6.5-18.4-1.1s-6.6,19.1-6.6,19.1S305.9,569.8,310.1,548.9z"/>
	<path class="st17" d="M285.1,566.9c0,0,3.3-15.9,25-17.9"/>
</g>
<path class="st2" d="M338.3,588.5c0,0-12.7-4.3-18.8,6.9c-3.3,6.2-3.2,13.6,0.3,19.7c4,7.3,12.3,16.7,28,15.9
	c13.3-0.7,17.7-10.9,18.9-20.3c1.5-11.4-6.6-21.9-18-23.4c-3.3-0.4-6.6-0.1-9.7,1L338.3,588.5z"/>
<path class="st15" d="M322.5,616c-3.4-6.1-3.5-13.5-0.3-19.7c6.1-11.2,18.8-6.9,18.8-6.9l0.7-0.2c4.8-1.8,10.2-1.6,14.9,0.3
	c-5.3-3.2-11.8-3.8-17.6-1.7l-0.7,0.2c0,0-12.7-4.3-18.8,6.9c-3.3,6.2-3.2,13.6,0.3,19.7c2.7,4.8,7.2,10.5,14.3,13.6
	C329.2,625.3,325.2,621.1,322.5,616z"/>
<path class="st16" d="M331.8,593.9c0,0,4.7,3.7,16.1,0"/>
<path class="st2" d="M330.8,566.9c0,0,8.1,21.9,7.4,27.6l6.4-0.7c0,0-10.8-19.2-8.1-26.9L330.8,566.9z"/>
<path class="st16" d="M330.8,566.9c0,0,8.1,21.9,7.4,27.6l6.4-0.7c0,0-10.8-19.2-8.1-26.9L330.8,566.9z"/>
<path class="st2" d="M363.8,568.8c0,0-12.7-6.5-18.4-1.1c-5.7,5.4-6.6,19.1-6.6,19.1S359.5,589.6,363.8,568.8z"/>
<path class="st15" d="M363.8,568.8c0,0-12.7-6.5-18.4-1.1c-5.7,5.4-6.6,19.1-6.6,19.1S359.5,589.6,363.8,568.8z"/>
<path class="st17" d="M338.8,586.7c0,0,3.3-15.9,25-17.9"/>
<path class="st2" d="M236.1,536.5c0,0,1.2-1.4-1.1-1.9v-2.3h1.4c0-5.7-4-10.6-9.6-11.8v-2.8h0.4v-3.6h-9.1v3.6h0.3v2.8
	c-5.5,1.2-9.4,6.1-9.4,11.8h1.3v2.2c0,0-3,1.4,0,3.9c3,2.5,2.5,4.4,2.5,4.4s-1.3,4.7-3.8,5.3v43.7c0,5.4,4.3,9.7,9.7,9.7h0h7.7
	c5.3,0,9.7-4.4,9.7-9.7v-43.7c0,0-4.4-3.3-3.6-5.3C233.6,540.6,234.8,538.5,236.1,536.5z"/>
</svg>
