<?xml version="1.0" encoding="utf-8"?>
<!-- Generator: Adobe Illustrator 23.0.0, SVG Export Plug-In . SVG Version: 6.00 Build 0)  -->
<svg version="1.1" id="레이어_1" xmlns="http://www.w3.org/2000/svg" xmlns:xlink="http://www.w3.org/1999/xlink" x="0px"
	 y="0px" viewBox="0 0 831.1 647" style="enable-background:new 0 0 831.1 647;" xml:space="preserve">
<style type="text/css">
	.st0{fill:#E6E6E6;}
	.st1{fill:#FFFFFF;}
	.st2{opacity:0.3;fill:#6C63FF;enable-background:new    ;}
	.st3{fill:#6C63FF;}
	.st4{fill:#F0F0F0;}
	.st5{fill:#A0616A;}
	.st6{fill:#2F2E41;}
	.st7{fill:#FFB6B6;}
	.st8{fill:#FFB8B8;}
</style>
<g>
	<path class="st0" d="M536.9,52.4c-10.4,0-18.9,8.5-18.9,18.9v344.9c0,10.4,8.5,18.9,18.9,18.9h188.9c10.4,0,18.9-8.5,18.9-18.9
		V71.3c0-10.4-8.5-18.9-18.9-18.9H536.9z"/>
	<path class="st1" d="M543.1,63.1c-7.9,0-14.3,6.4-14.3,14.3V410c0,7.9,6.4,14.3,14.3,14.3h176.6c7.9,0,14.3-6.4,14.3-14.3V77.4
		c0-7.9-6.4-14.3-14.3-14.3L543.1,63.1z"/>
	<path class="st0" d="M716.6,133.2H546.1c-1.7,0-3.2-1.4-3.2-3.2V87.7c0-1.7,1.4-3.2,3.2-3.2h170.5c1.7,0,3.2,1.4,3.2,3.2V130
		C719.8,131.8,718.4,133.2,716.6,133.2z M546.1,85.8c-1,0-1.9,0.8-1.9,1.9V130c0,1,0.8,1.9,1.9,1.9h170.5c1,0,1.9-0.8,1.9-1.9V87.7
		c0-1-0.8-1.9-1.9-1.9L546.1,85.8z"/>
	<path class="st0" d="M716.6,300.6H546.1c-1.7,0-3.2-1.4-3.2-3.2v-78.3c0-1.7,1.4-3.2,3.2-3.2h170.5c1.7,0,3.2,1.4,3.2,3.2v78.3
		C719.8,299.1,718.4,300.6,716.6,300.6z M546.1,217.2c-1,0-1.9,0.8-1.9,1.9v78.3c0,1,0.8,1.9,1.9,1.9h170.5c1,0,1.9-0.8,1.9-1.9
		v-78.3c0-1-0.8-1.9-1.9-1.9L546.1,217.2z"/>
	<path class="st0" d="M715.4,198.9h-75.8c-1.7,0-3.2-1.4-3.2-3.2v-42.3c0-1.7,1.4-3.2,3.2-3.2h75.8c1.7,0,3.2,1.4,3.2,3.2v42.3
		C718.5,197.5,717.1,198.9,715.4,198.9z M639.6,151.5c-1,0-1.9,0.8-1.9,1.9v42.3c0,1,0.8,1.9,1.9,1.9h75.8c1,0,1.9-0.8,1.9-1.9
		v-42.3c0-1-0.8-1.9-1.9-1.9L639.6,151.5z"/>
	<path class="st0" d="M621.9,402.9h-75.8c-1.7,0-3.2-1.4-3.2-3.2v-78.9c0-1.7,1.4-3.2,3.2-3.2h75.8c1.7,0,3.2,1.4,3.2,3.2v78.9
		C625.1,401.5,623.6,402.9,621.9,402.9z M546.1,318.9c-1,0-1.9,0.8-1.9,1.9v78.9c0,1,0.8,1.9,1.9,1.9h75.8c1,0,1.9-0.8,1.9-1.9
		v-78.9c0-1-0.8-1.9-1.9-1.9L546.1,318.9z"/>
	<path class="st0" d="M715.4,402.9h-75.8c-1.7,0-3.2-1.4-3.2-3.2v-78.9c0-1.7,1.4-3.2,3.2-3.2h75.8c1.7,0,3.2,1.4,3.2,3.2v78.9
		C718.5,401.5,717.1,402.9,715.4,402.9z M639.6,318.9c-1,0-1.9,0.8-1.9,1.9v78.9c0,1,0.8,1.9,1.9,1.9h75.8c1,0,1.9-0.8,1.9-1.9
		v-78.9c0-1-0.8-1.9-1.9-1.9L639.6,318.9z"/>
	<circle class="st0" cx="571.3" cy="243.7" r="12.9"/>
	<path class="st0" d="M601,235.1c-1.2,0-2.1,1-2.1,2.1c0,1.2,1,2.1,2.1,2.1h101.1c1.2,0,2.1-1,2.1-2.1c0-1.2-1-2.1-2.1-2.1H601z"/>
	<path class="st0" d="M601,248c-1.2,0-2.1,1-2.1,2.1c0,1.2,1,2.1,2.1,2.1h43.5c1.2,0,2.1-1,2.1-2.1c0-1.2-1-2.1-2.1-2.1H601z"/>
	<path class="st0" d="M561.5,268.5c-1.6,0-3,1-3,2.1s1.3,2.1,3,2.1h139.4c1.6,0,3-1,3-2.1s-1.3-2.1-3-2.1H561.5z"/>
	<path class="st0" d="M561.5,281.4c-1.6,0-3,1-3,2.1c0,1.2,1.3,2.1,3,2.1h139.4c1.6,0,3-1,3-2.1c0-1.2-1.3-2.1-3-2.1H561.5z"/>
	<circle class="st0" cx="572.6" cy="107.3" r="12.9"/>
	<path class="st0" d="M602.3,98.7c-1.2,0-2.1,1-2.1,2.1c0,1.2,1,2.1,2.1,2.1h101.1c1.2,0,2.1-1,2.1-2.1c0-1.2-1-2.1-2.1-2.1l0,0
		c0,0,0,0,0,0H602.3z"/>
	<path class="st0" d="M602.3,111.5c-1.2,0-2.1,1-2.1,2.1c0,1.2,1,2.1,2.1,2.1h43.5c1.2,0,2.1-1,2.1-2.1c0-1.2-1-2.1-2.1-2.1
		c0,0,0,0,0,0H602.3z"/>
	<path class="st0" d="M621.8,198.9h-71.1l16.7-29c0.9-1.6,3-2.2,4.7-1.3c0.5,0.3,1,0.7,1.3,1.3l7.1,12.4l12.2-21.1
		c1.2-2,3.8-2.7,5.8-1.6c0.7,0.4,1.2,0.9,1.6,1.6L621.8,198.9z M552.9,197.6h66.7L599,161.9c-0.8-1.4-2.7-1.9-4.1-1.1
		c-0.5,0.3-0.8,0.6-1.1,1.1l-13.2,22.9l-8.2-14.3c-0.6-1-1.9-1.4-2.9-0.8c-0.3,0.2-0.6,0.5-0.8,0.8L552.9,197.6z"/>
	<path class="st0" d="M712.8,198.9h-71.1l16.7-29c0.9-1.6,3-2.2,4.7-1.3c0.5,0.3,1,0.7,1.3,1.3l7.1,12.4l12.2-21.1
		c1.2-2,3.8-2.7,5.8-1.6c0.7,0.4,1.2,0.9,1.6,1.6L712.8,198.9z M643.9,197.6h66.7l-20.6-35.8c-0.8-1.4-2.7-1.9-4.1-1.1
		c-0.5,0.3-0.8,0.6-1.1,1.1l-13.2,22.9l-8.2-14.3c-0.6-1-1.9-1.4-2.9-0.8c-0.3,0.2-0.6,0.5-0.8,0.8L643.9,197.6z"/>
	<path class="st0" d="M621.9,198.9h-75.8c-1.7,0-3.2-1.4-3.2-3.2v-42.3c0-1.7,1.4-3.2,3.2-3.2h75.8c1.7,0,3.2,1.4,3.2,3.2v42.3
		C625.1,197.5,623.6,198.9,621.9,198.9z M546.1,151.5c-1,0-1.9,0.8-1.9,1.9v42.3c0,1,0.8,1.9,1.9,1.9h75.8c1,0,1.9-0.8,1.9-1.9
		v-42.3c0-1-0.8-1.9-1.9-1.9L546.1,151.5z"/>
	<path class="st0" d="M562.3,333.9c-1.2,0-2.1,1-2.1,2.1c0,1.2,1,2.1,2.1,2.1c0,0,0,0,0,0h43.5c1.2,0,2.1-1,2.1-2.1
		c0-1.2-1-2.1-2.1-2.1c0,0,0,0,0,0H562.3z"/>
	<path class="st0" d="M562.3,346.5c-1.2,0-2.1,1-2.1,2.1c0,1.2,1,2.1,2.1,2.1c0,0,0,0,0,0h43.5c1.2,0,2.1-1,2.1-2.1
		c0-1.2-1-2.1-2.1-2.1c0,0,0,0,0,0H562.3z"/>
	<path class="st0" d="M584,386.6c-7.5,0-13.5-6-13.5-13.5c0-7.5,6-13.5,13.5-13.5s13.5,6,13.5,13.5c0,0,0,0,0,0l0,0
		C597.5,380.6,591.5,386.6,584,386.6z M584,360.9c-6.8,0-12.2,5.5-12.2,12.2c0,6.8,5.5,12.2,12.2,12.2s12.2-5.5,12.2-12.2v0l0,0
		C596.2,366.4,590.8,360.9,584,360.9L584,360.9z"/>
	<path class="st0" d="M699.2,386.6c1.2,0,2.1-1,2.1-2.1c0-1.2-1-2.1-2.1-2.1c0,0,0,0,0,0h-43.5c-1.2,0-2.1,1-2.1,2.1
		c0,1.2,1,2.1,2.1,2.1H699.2z"/>
	<path class="st0" d="M699.2,374c1.2,0,2.1-1,2.1-2.1c0-1.2-1-2.1-2.1-2.1c0,0,0,0,0,0h-43.5c-1.2,0-2.1,1-2.1,2.1s1,2.1,2.1,2.1
		H699.2z"/>
	<path class="st0" d="M677.5,333.9c7.5,0,13.5,6,13.5,13.5s-6,13.5-13.5,13.5s-13.5-6-13.5-13.5v0C664,340,670,333.9,677.5,333.9z
		 M677.5,359.6c6.8,0,12.2-5.5,12.2-12.2c0-6.8-5.5-12.2-12.2-12.2s-12.2,5.5-12.2,12.2l0,0v0C665.3,354.2,670.7,359.6,677.5,359.6
		L677.5,359.6z"/>
	<circle class="st2" cx="656.8" cy="130.6" r="31.9"/>
	<circle class="st2" cx="656.8" cy="130.6" r="21.3"/>
	<circle class="st3" cx="656.8" cy="130.6" r="14.8"/>
	<circle class="st2" cx="584" cy="346.5" r="23.6"/>
	<circle class="st2" cx="584" cy="346.5" r="15.7"/>
	<circle class="st3" cx="584" cy="346.5" r="10.9"/>
	<circle class="st2" cx="682.2" cy="254.2" r="27.2"/>
	<circle class="st2" cx="682.2" cy="254.2" r="18.1"/>
	<circle class="st3" cx="682.2" cy="254.2" r="12.6"/>
</g>
<circle class="st4" cx="169.8" cy="118.5" r="73"/>
<circle class="st4" cx="168.2" cy="517.9" r="73"/>
<circle class="st4" cx="391.8" cy="118.5" r="73"/>
<path class="st3" d="M202.3,552c-5.8-3-11.8-5.6-17.9-7.6l-0.8-8.7l-32-3.4l-4.1,11.2l-11.5,4.3c-0.4,0.2-0.8,0.4-1.2,0.6h0
	c-1.9,0.2-3.7,0.8-5.3,1.8c-1.1,0.7-2,1.5-2.8,2.5c1.6,1.2,3.2,2.3,4.8,3.3l0.1,0c0.5,0.3,1,0.6,1.4,0.9c0.9,0.5,1.8,1,2.7,1.5
	l0.6,0.3c1.3,0.7,2.6,1.3,4,1.9c0.3,0.1,0.6,0.2,0.9,0.4c0,0,0,0,0.1,0c0.6,0.3,1.3,0.5,1.9,0.8c2.2,0.8,4.4,1.5,6.6,2.1
	c5.7,1.5,11.6,2.3,17.4,2.3c2.1,0,4.3-0.1,6.4-0.3c4.8-0.4,9.5-1.4,14.1-2.9c0,0,0,0,0,0c2.9-0.9,5.7-2,8.5-3.4c0,0,0,0,0,0
	c0.6-0.3,1.2-0.6,1.8-0.9l0.3-0.1c0.5-0.3,1-0.5,1.5-0.8c1.2-0.7,2.4-1.4,3.6-2.1c0.3-0.2,0.6-0.4,1-0.6c0.5-0.3,0.9-0.6,1.4-0.9
	C204.7,553.3,203.6,552.6,202.3,552z"/>
<circle class="st5" cx="166.4" cy="503.7" r="23.1"/>
<path class="st6" d="M150.9,492.4c2.4,2.8,6.4,3.6,10.1,3.9c7.6,0.7,18.6-0.4,26-2.1c0.5,5.1-0.9,10.6,2.1,14.8
	c1.4-5.1,2.2-10.3,2.4-15.6c0.2-2.3-0.1-4.6-0.9-6.7c-0.9-2.2-2.9-3.7-5.2-3.9c1.7-1.3,3.7-2.2,5.9-2.5l-7.3-3.7l1.9-1.9l-13.3-0.8
	l3.8-2.4c-5.8-0.8-11.6-1-17.4-0.6c-2.7,0.2-5.5,0.6-7.7,2.1s-3.5,4.7-2.1,7c-3.5,0.6-6.4,2.9-7.7,6.1c-0.8,2.5-1,5.2-0.6,7.9
	c0.5,4.2,1.5,8.4,2.9,12.3L150.9,492.4z"/>
<circle id="bfd52db7-3176-431c-b22d-4ccf50ae4673" class="st6" cx="395.8" cy="69.3" r="9.7"/>
<path id="b31e8c25-48a3-409d-90cd-0f3aa66812dd-3246" class="st6" d="M387.3,74.3c-3.9-3.7-4.1-9.8-0.5-13.8c1.1-1.2,2.5-2.1,4-2.6
	c-5.3,0.8-9,5.7-8.2,11.1c0.8,5.3,5.7,9,11.1,8.2c0.6-0.1,1.1-0.2,1.7-0.4C392.5,77.3,389.5,76.4,387.3,74.3L387.3,74.3z"/>
<circle id="fe71adb6-1e7d-40f2-ae2d-2f206863ade9" class="st6" cx="396" cy="103.1" r="28.6"/>
<path id="e07a90a6-c331-41ef-a441-b6d8bd717078-3247" class="st6" d="M370.5,87.3c10.3-11.5,27.8-12.9,39.7-3
	c-0.2-0.2-0.5-0.4-0.7-0.7c-11.8-10.5-29.9-9.5-40.4,2.2c-10.5,11.8-9.5,29.9,2.2,40.4c0.1,0,0.1,0.1,0.2,0.1
	c0.2,0.2,0.5,0.4,0.7,0.6C361,116.4,360.3,98.9,370.5,87.3L370.5,87.3z"/>
<circle id="fefa9ca9-d901-48cd-a772-63aab06ef99d" class="st5" cx="395.8" cy="113" r="18.4"/>
<path class="st3" d="M428.8,161.1v6.2c-1.1,0.7-2.3,1.4-3.4,2c-0.5,0.3-0.9,0.5-1.4,0.7l-0.3,0.1c-0.6,0.3-1.2,0.6-1.8,0.9
	c0,0,0,0,0,0c-2.6,1.3-5.4,2.3-8.2,3.2c0,0,0,0,0,0c-4.4,1.4-9,2.3-13.6,2.7c-2,0.2-4.1,0.3-6.1,0.3c-5.7,0-11.3-0.7-16.8-2.2
	c-2.8-0.7-5.5-1.7-8.2-2.8c0,0,0,0-0.1,0c-0.3-0.1-0.6-0.2-0.8-0.4c-1.3-0.6-2.6-1.2-3.9-1.8l-0.5-0.3c-1.3-0.7-2.7-1.5-4-2.3
	l-0.1,0c-2-1.2-3.9-2.6-5.8-4.1c-0.9-0.7-1.9-1.5-2.7-2.3c-0.5-0.4-0.9-0.8-1.4-1.2c-1.7-1.6-3.3-3.2-4.8-5c0.2-1.2,0.5-2.4,0.9-3.6
	l0,0c0.1-0.2,0.2-0.4,0.2-0.6c0.1-0.2,0.1-0.3,0.2-0.5c2.1-3.9,5.9-4.9,10.6-5.1c2.6-0.1,5.6,0,8.7,0c1.6,0,3.3-0.1,5-0.2
	c10.7-1,8.7-7.3,9.2-10.7c0.5-3.3,3.4-0.4,3.6-0.3l0,0c6,2.8,12.7,4,19.4,3.4c1.1-0.1,2.3-0.2,3.4-0.3c3,0,2.4,0.8,1.3,1.5
	c-0.5,0.3-1,0.6-1.6,0.9c0,0-0.5,2.9-1,7.3c-0.5,4.2,14.3,5.6,17.1,6.5h0C425.5,154.8,428,157.6,428.8,161.1z"/>
<ellipse id="eb9de4e7-d719-4e1b-ab1d-c7fc470b1049" class="st5" cx="377.1" cy="109.1" rx="1.5" ry="2.7"/>
<ellipse id="a295d86f-11aa-4df2-91d0-9ecb8f1fab78" class="st5" cx="414.4" cy="109.1" rx="1.5" ry="2.7"/>
<path class="st6" d="M146.4,123.6l3.5,12.1l44.8-0.8l-0.4-22.2C194,95.2,181.5,80,163.9,80.3s-28.8,15.2-28.5,32.8L138,136l7.3-0.1
	L146.4,123.6z"/>
<ellipse transform="matrix(0.9951 -9.853760e-02 9.853760e-02 0.9951 -10.233 16.8956)" class="st7" cx="165.9" cy="112" rx="20.1" ry="20.1"/>
<path class="st6" d="M187.9,97.9c0-1.5-0.5-3-1.4-4.3c-0.1-0.1-0.2-0.3-0.3-0.4c-1.5-1.9-3.8-3-6.3-3l-14.4,0.3l-14.4,0.3
	c-4.3,0.1-7.7,3.6-7.7,7.9l3.4,6.9l2,4l0.3-0.2c12.5-7,17.6-7.1,34.1-0.6l0.3,0.1l1.3-3.4L187.9,97.9L187.9,97.9z"/>
<path class="st3" d="M205.9,143.4c-4.3-4.3-18.9-2.6-18.9-2.6l-38.5,2.4c-8.5,0.6-16.2,7.5-19,10.2c0.4,0.4,0.9,0.9,1.4,1.3
	c17.5,15.6,43.2,18,63.3,6c4.1-2.5,9.4-5.4,12.7-8.9c1.3-1.4,2.4-1.3,3.5-2.8C209.6,146.7,208,144.7,205.9,143.4z"/>
<circle class="st4" cx="169.8" cy="319.5" r="73"/>
<circle class="st4" cx="391.8" cy="517.9" r="73"/>
<circle class="st4" cx="391.8" cy="319.5" r="73"/>
<circle class="st8" cx="168.6" cy="309.8" r="20.2"/>
<path class="st6" d="M149.5,316.1c0,0,1.7-3,1.3-13.1s14.9-4.4,27.7-5.3s10.1,16.8,10.1,16.8s0.9-1.1,2.9-9.6s-2.5-17.1-2.5-17.1
	c-1.3-9-8.4-6.1-8.4-6.1c3.4,1.3,2.8,4.2,2.8,4.2c-2.9-5.1-10-2.2-10-2.2c-9.5-6-19.1,1.9-19.1,1.9c-11.5,2.6-4.7,11.7-4.7,11.7
	C137.9,303.1,149.5,316.1,149.5,316.1z"/>
<path class="st3" d="M202.2,357.2c-5.8-3-11.8-5.6-17.9-7.6l-0.8-8.7l-32-3.4l-4.1,11.2l-11.5,4.3c-0.4,0.2-0.8,0.4-1.2,0.6h0
	c-1.9,0.2-3.7,0.8-5.3,1.8c-1.1,0.7-2,1.5-2.8,2.5c1.6,1.2,3.2,2.3,4.8,3.3l0.1,0c0.5,0.3,1,0.6,1.4,0.9c0.9,0.5,1.8,1,2.7,1.5
	l0.6,0.3c1.3,0.7,2.6,1.3,4,1.9c0.3,0.1,0.6,0.2,0.9,0.4c0,0,0,0,0.1,0c0.6,0.3,1.3,0.5,1.9,0.8c2.2,0.8,4.4,1.5,6.6,2.1
	c5.7,1.5,11.6,2.3,17.4,2.3c2.1,0,4.3-0.1,6.4-0.3c4.8-0.4,9.5-1.4,14.1-2.9c0,0,0,0,0,0c2.9-0.9,5.7-2,8.5-3.4c0,0,0,0,0,0
	c0.6-0.3,1.2-0.6,1.8-0.9l0.3-0.1c0.5-0.3,1-0.5,1.5-0.8c1.2-0.7,2.4-1.4,3.6-2.1c0.3-0.2,0.6-0.4,1-0.6c0.5-0.3,0.9-0.6,1.4-0.9
	C204.6,358.5,203.4,357.8,202.2,357.2z"/>
<path class="st3" d="M419.5,352.9l-12.2-1.1l-7.3-5.3c0,0,0,0,0,0l0,0l-0.3-0.2l0,0.3l-12.3,4.7l-12.6-2.9l-4.4,4.7l-19.4,6.4
	c-0.9,0.6-1.8,1.4-2.4,2.3l0,0c0.8,0.6,1.7,1.3,2.5,1.9c1.9,1.4,3.9,2.7,6,3.8c5,2.9,10.4,5.1,16,6.6c0.5,0.1,1,0.3,1.5,0.4
	c0.9,0.2,1.8,0.4,2.7,0.6c1.8,0.4,3.6,0.7,5.5,0.9c2.7,0.3,5.4,0.5,8.2,0.5c1.9,0,3.7-0.1,5.5-0.2c3.2-0.3,6.4-0.7,9.5-1.5
	c0.1,0,0.2,0,0.3-0.1c4.8-1.1,9.5-2.7,14-4.9c0.7-0.3,1.4-0.7,2-1c1.7-0.9,3.3-1.8,4.8-2.8c1.2-0.7,2.3-1.5,3.5-2.3
	c0.7-0.5,1.4-1,2.1-1.5l-0.1-0.2C430.2,356.9,425.2,353.4,419.5,352.9z"/>
<path class="st6" d="M407.9,292.3c-1.4-1.4-3-2.6-4.8-3.6c-10.7-5.9-22.5-6-32.2-0.3c-2.4,1.4-4.6,3.2-6.6,5.2
	c-5.5,5.7-8.5,13.3-8.5,21.1v23.4H417v-25.8C417,305.5,413.2,297.5,407.9,292.3z"/>
<circle class="st8" cx="385.2" cy="315.4" r="22.1"/>
<path class="st6" d="M407.9,295.4c-0.1-1-0.7-1.8-1.5-2.2c-13.8-6.5-27.8-6.3-41.6,0.5h-0.3l-0.1,0.3c-2.7,21-2.3,21.4-2.2,21.6
	c0.3,0.3,0.6,0.5,1,0.7c0.3,0.1,0.7,0.2,1.1,0.2h31.5l0.1-0.4c0.4-1.9,0.8-3.7,1.4-5.6c1.3,1.8,2.4,3.7,3.5,5.7l0.1,0.2h6.1
	c0.1,0,0.2,0,0.3,0c0.6-0.1,1.2-0.4,1.6-0.9C409.1,315.5,409.5,315,407.9,295.4z"/>
<path class="st3" d="M412.8,544.9L412,536l-32.4-3.5l-4.1,11.3l-11.6,4.4c-0.4,0.2-0.8,0.4-1.2,0.6c-2.3,0.2-4.5,1.1-6.3,2.6
	c0.3,0.2,0.5,0.4,0.8,0.6c0.1,0.1,0.1,0.1,0.2,0.1c0.7,0.6,1.5,1.1,2.3,1.7c0.2,0.1,0.4,0.3,0.6,0.4c1.7,1.2,3.4,2.3,5.2,3.3
	c1.7,1,3.5,1.9,5.3,2.7c3.3,1.5,6.8,2.8,10.3,3.7c0.5,0.1,1,0.3,1.5,0.4c0.9,0.2,1.7,0.4,2.6,0.6c1.8,0.4,3.5,0.7,5.3,0.9
	c2.6,0.3,5.3,0.5,8,0.5c1.8,0,3.6-0.1,5.4-0.2c3.1-0.3,6.2-0.7,9.3-1.4c0.1,0,0.2,0,0.3-0.1c4.7-1.1,9.3-2.7,13.6-4.7
	c0.7-0.3,1.3-0.6,2-1c1.6-0.8,3.2-1.7,4.7-2.7c0.5-0.3,1.1-0.7,1.6-1.1C427.1,549.6,415,545.6,412.8,544.9z"/>
<circle id="e8fe815c-89b6-45a1-8f09-a3d9b2d7a5fa" class="st5" cx="394.6" cy="503.6" r="23.3"/>
<path id="b463a6a0-335d-4c85-b501-8d2679f87106-3248" class="st6" d="M378.9,492.2c2.4,2.9,6.5,3.7,10.3,4
	c7.7,0.7,18.8-0.4,26.3-2.1c0.5,5.2-0.9,10.8,2.1,15c1.4-5.2,2.3-10.5,2.5-15.8c0.2-2.3-0.1-4.6-0.9-6.8c-0.9-2.2-2.9-3.7-5.3-3.9
	c0.5-0.5,0.7-1.3,0.4-2c-0.6-2.5-2.5-4.4-5-5l-8.4-2c0,0-7.9-3.5-13.8-3c-2.7,0.2-5.6,0.6-7.8,2.2s-3.5,4.7-2.1,7.1
	c-3.5,0.6-6.5,2.9-7.8,6.2c-0.8,2.6-1,5.3-0.6,8c0.5,4.3,1.5,8.5,3,12.5L378.9,492.2z"/>
<path class="st6" d="M415.7,98.9c-0.7-2.3-2.3-4.2-4.4-5.3c-2.1-1.1-4.3-1.9-6.6-2.3c-4-1.2-8.2-1.7-12.4-1.7
	c-4.2,0.2-8.5,1.6-11.3,4.7s-3.9,8-1.8,11.6l-0.2,0.9c6.8,0.8,13.4-2.5,16.9-8.3c3.2,5.1,9,7.9,14.9,7.3c0.9-0.1,1.8-0.3,2.7-0.8
	C415.4,103.7,416.3,101.2,415.7,98.9z"/>
</svg>
