<?xml version="1.0" encoding="utf-8"?>
<!-- Generator: Adobe Illustrator 23.0.0, SVG Export Plug-In . SVG Version: 6.00 Build 0)  -->
<svg version="1.1" id="레이어_1" xmlns="http://www.w3.org/2000/svg" xmlns:xlink="http://www.w3.org/1999/xlink" x="0px"
	 y="0px" viewBox="0 0 1000 1000" style="enable-background:new 0 0 1000 1000;" xml:space="preserve">
<style type="text/css">
	.st0{fill:#E1FF31;}
	.st1{fill:#020202;}
</style>
<path class="st0" d="M812.93,853.2H178.97c-13.79,0-24.97-11.18-24.97-24.97V194.27c0-13.79,11.18-24.97,24.97-24.97h633.95
	c13.79,0,24.97,11.18,24.97,24.97v633.95C837.9,842.02,826.72,853.2,812.93,853.2z"/>
<g>
	<path d="M166.12,702.43c5.44-18.38,10.85-36.78,15.87-55.28c7.21-26.6,14.16-53.3,21.01-79.98c4.59-17.88,9.21-35.78,13.41-53.77
		c1.37-5.91,2.75-11.81,4.12-17.72c6.67,0.23,13.35,0.46,20.03,0.45c7.19-0.01,14.41-0.32,21.59-0.68
		c10.96-0.55,22.01-0.65,32.98-0.68c7.66-0.02,15.48,0.69,22.86,2.42c5.82,1.37,12.54,5.54,16.46,10
		c4.89,5.55,8.24,12.58,9.99,19.84c2.28,9.49,2.61,19.16,2.29,28.7c-0.37,11.29-2.25,22.85-4.79,33.85
		c-2.56,11.08-6.04,22.17-10.06,32.94c-3.65,9.8-8.12,19.58-13.32,28.55c-4.42,7.62-9.31,15.1-15.11,21.89
		c-4.98,5.82-10.58,11.14-16.76,15.68c-4.41,3.23-8.68,5.76-12.83,7.57c-4.15,1.82-9.63,3.36-16.28,4.39
		c-10.66,1.66-21.88,1.82-32.76,1.82c-13.39-0.15-26.78-0.3-40.17-0.45C178.48,702,172.29,702.21,166.12,702.43z M219.82,656.84
		c3.54,0.51,7.32,0.78,11.28,0.76c8.76-0.05,18.4-0.23,26.68-2.73c6.46-1.95,12.16-6.58,16.71-11.66
		c6.12-6.85,10.65-14.83,14.26-22.95c4.03-9.06,7.31-19,9.57-28.7c2.27-9.77,3.78-20.07,2.78-30.37c-0.6-6.2-2.5-13.12-7.42-17.19
		c-5.05-4.19-12.24-4.65-18.26-4.85c-8.02-0.26-16.73,0.26-25.07,0.91C240.17,578.99,230,617.91,219.82,656.84z"/>
	<path d="M320.77,702.43c17.36-62.13,34.67-124.36,49.3-187.21c1.48-6.51,2.96-13.02,4.45-19.54c7.76,0.14,15.56,0.32,23.28,0.3
		c7.14-0.01,14.35-0.19,21.52-0.3c-6.11,21.47-12.16,43.01-17.91,64.52c-7.04,26.31-13.86,52.82-20.45,79.29
		c-5.21,20.93-10.34,41.91-15.24,62.93c-6.79-0.1-13.57-0.2-20.36-0.3C337.16,702.15,328.97,702.3,320.77,702.43z"/>
	<path d="M419.87,702.43c0.19-6.16,0.38-12.32,0.57-18.48c0.13-35.49,0.27-70.99,0.4-106.48c-0.04-27.26-0.08-54.53-0.12-81.79
		c7.47,0.18,14.95,0.31,22.41,0.3c6.33-0.01,12.68-0.15,19.01-0.3c-0.4,6.82-0.83,13.68-1.09,20.46
		c-0.41,10.88-0.56,21.93-0.8,32.89c-0.62,23.9-1.24,47.8-1.86,71.69c-0.34,9.76-0.82,19.51-1.32,29.25
		c2.68-5.81,5.37-11.62,8.05-17.43c19.18-38.6,38.36-77.2,57.53-115.8c1.02-2.12,2.18-4.55,3.48-7.27c1.3-2.73,3.43-7.32,6.38-13.79
		c7.2,0.15,14.42,0.31,21.61,0.3c6.77-0.01,13.56-0.17,20.34-0.3c-12.19,22.31-24.15,44.76-36.05,67.25
		c-18.18,34.53-36.35,69.07-54.53,103.6c-6.21,11.88-12.22,23.87-18.19,35.89c-7.42-0.14-14.85-0.31-22.25-0.3
		C435.61,702.13,427.73,702.3,419.87,702.43z"/>
	<path d="M552.11,702.43c0.19-6.16,0.38-12.32,0.57-18.48c0.13-35.49,0.27-70.99,0.4-106.48c-0.04-27.26-0.08-54.53-0.12-81.79
		c7.47,0.18,14.95,0.31,22.41,0.3c6.33-0.01,12.68-0.15,19.01-0.3c-0.4,6.82-0.83,13.68-1.09,20.46
		c-0.41,10.88-0.56,21.93-0.8,32.89c-0.62,23.9-1.24,47.8-1.86,71.69c-0.34,9.76-0.82,19.51-1.32,29.25
		c2.68-5.81,5.37-11.62,8.05-17.43c19.18-38.6,38.35-77.2,57.53-115.8c1.02-2.12,2.18-4.55,3.48-7.27c1.3-2.73,3.43-7.32,6.38-13.79
		c7.2,0.15,14.42,0.31,21.61,0.3c6.77-0.01,13.56-0.17,20.34-0.3c-12.19,22.31-24.15,44.76-36.05,67.25
		c-18.18,34.53-36.35,69.07-54.53,103.6c-6.21,11.88-12.22,23.87-18.19,35.89c-7.42-0.14-14.85-0.31-22.25-0.3
		C567.85,702.13,559.97,702.3,552.11,702.43z"/>
	<path d="M685.38,702.43c4.02-13.8,7.64-27.75,11.27-41.65c3.59-13.77,7.26-27.57,10.3-41.5c-5.25-41.2-10.51-82.4-15.77-123.59
		c7.69,0.15,15.38,0.3,23.06,0.3c6.98,0,13.98-0.13,20.97-0.3c0.33,12.06,1.26,24.1,2.25,36.11c1.03,12.47,1.91,24.96,2.23,37.48
		c9.08-16.05,18.19-32.11,27.58-47.92c5.04-8.48,10.11-16.98,14.86-25.66c7.55,0.17,15.12,0.3,22.64,0.3c6.98,0.01,14-0.17,21-0.3
		c-20.69,32.66-41.38,65.33-62.06,98c-6.35,10.07-13.41,20.06-18.85,30.75c-0.17,0.61-0.25,0.91-0.42,1.51
		c-0.13,0.61-0.2,0.91-0.33,1.52c-0.17,0.61-0.25,0.91-0.42,1.51c-1.88,7.67-3.76,15.35-5.64,23.02
		c-4.1,16.78-8.07,33.6-11.96,50.44c-6.73-0.16-13.48-0.3-20.2-0.3C699.07,702.12,692.22,702.27,685.38,702.43z"/>
</g>
<g>
	<path d="M542.18,343l-18.41-18.41c-1.85-1.85-4.56-2.58-7.09-1.9l-25.14,6.74c-2.53,0.68-4.51,2.66-5.19,5.19l-6.74,25.14
		c-0.68,2.53,0.05,5.23,1.9,7.09l4.4,4.4l-10.61,10.61l-0.18-0.18c-1.52-1.52-3.74-2.12-5.82-1.56l-13.62,3.65
		c-2.08,0.56-3.7,2.18-4.26,4.26l-3.65,13.62c-0.56,2.08,0.04,4.3,1.56,5.82l9.97,9.97c1.52,1.52,3.74,2.12,5.82,1.56l13.62-3.65
		c2.08-0.56,3.7-2.18,4.26-4.26l3.65-13.62c0.56-2.08-0.04-4.3-1.56-5.82l-1.05-1.05L494.65,380l5.26,5.26
		c1.85,1.85,4.56,2.58,7.09,1.9l25.14-6.74c2.53-0.68,4.51-2.66,5.19-5.19l6.74-25.14C544.76,347.56,544.03,344.86,542.18,343z"/>
	<g>
		<path class="st1" d="M498.74,295.12l5.2,0.71c0.92,0.11,1.77,0.17,2.56,0.17c0.23,0,0.46,0,0.68-0.02
			c0.87-0.04,1.59-0.16,2.12-0.35c0.53-0.19,1.08-0.47,1.62-0.85c0.73-0.5,1.4-1.14,2.01-1.9c0.6-0.75,1.17-1.68,1.69-2.76
			c0.51-1.08,0.96-2.31,1.34-3.68c0.38-1.36,0.67-2.82,0.85-4.32c0.19-1.53,0.24-3.05,0.15-4.53c-0.09-1.48-0.33-2.82-0.71-3.97
			c-0.38-1.17-0.93-2.15-1.62-2.93c-0.7-0.78-1.5-1.35-2.38-1.69c-0.86-0.33-1.89-0.56-3.05-0.71c-1.01-0.13-2.1-0.23-3.25-0.31
			c-1.14-0.08-2.07-0.17-2.77-0.25c-0.72-0.09-1.59-0.22-2.58-0.38l-0.29-0.05l-0.32,2.61c-0.17,1.4-0.51,3.76-0.99,7.02
			c-0.63,4.24-1.17,7.75-1.61,10.43c-0.29,1.79-0.73,4.21-1.29,7.18l-0.06,0.31l0.31,0.03
			C497.46,294.98,498.27,295.06,498.74,295.12z M503.02,289.11l2.25-14.74c0.74,0.03,1.38,0.07,1.93,0.14
			c0.99,0.12,1.76,0.42,2.28,0.88c0.51,0.46,0.89,1.22,1.11,2.28c0.23,1.09,0.25,2.42,0.06,3.95c-0.16,1.26-0.43,2.49-0.83,3.66
			c-0.39,1.15-0.88,2.08-1.47,2.77c-0.57,0.66-1.19,1.07-1.84,1.21c-0.68,0.15-1.45,0.17-2.3,0.06
			C503.79,289.27,503.4,289.2,503.02,289.11z"/>
		<path class="st1" d="M514.31,297.6l0.29,0.08c1.57,0.45,2.58,0.73,3.06,0.88l2.81,0.89l0.08-0.27c0.66-2.19,1.49-4.85,2.47-7.92
			c0.98-3.07,2.08-6.42,3.27-9.94c0.86-2.52,1.81-5.22,2.82-8.04l0.1-0.28l-0.29-0.08c-1.47-0.42-2.45-0.7-2.68-0.77
			c-0.49-0.15-1.47-0.46-2.9-0.92l-0.27-0.09l-0.81,2.75c-1.66,5.49-4.29,13.37-7.84,23.42L514.31,297.6z"/>
		<path class="st1" d="M525.43,301.3l0.21,0.1c1.45,0.69,2.44,1.16,2.96,1.42c0.55,0.27,1.46,0.74,2.77,1.42l0.19,0.1l0.15-0.16
			c1.28-1.39,2.43-2.6,3.4-3.59l10.08-10.27c2.5-2.53,4.72-4.76,6.62-6.62l0.29-0.28l-0.37-0.17c-1.27-0.6-2.13-1.01-2.55-1.22
			c-0.69-0.34-1.59-0.8-2.69-1.38l-0.2-0.1l-0.15,0.17c-0.56,0.66-0.98,1.14-1.23,1.42l-0.66,0.74l-10.84,11.69l-0.71,0.82
			c0.29-0.99,0.53-1.84,0.72-2.53l2.48-9.33c0.54-2.05,0.92-3.49,1.13-4.28c0.17-0.6,0.42-1.46,0.78-2.62l0.07-0.23l-0.22-0.1
			c-1.07-0.5-1.88-0.88-2.39-1.14c-0.83-0.41-1.77-0.89-2.79-1.43l-0.32-0.17l-2.63,11.13l-3.38,13.99L525.43,301.3z"/>
		<path class="st1" d="M541.88,307.57l-1.3,2.39l0.18,0.15c1.28,1.02,2.11,1.7,2.55,2.06c0.48,0.4,1.28,1.07,2.37,2.01l0.16,0.14
			l0.18-0.12c1.57-1.06,2.96-1.97,4.13-2.72l12.16-7.68c3-1.88,5.68-3.54,7.96-4.92l0.35-0.21l-0.32-0.25
			c-1.09-0.87-1.83-1.47-2.2-1.77c-0.6-0.49-1.37-1.15-2.3-1.96l-0.17-0.15l-0.18,0.13c-0.71,0.52-1.22,0.89-1.52,1.1l-0.81,0.57
			l-13.24,8.89l-0.88,0.63c0.51-0.9,0.94-1.67,1.28-2.3l4.56-8.51c0.98-1.86,1.68-3.17,2.08-3.9c0.3-0.54,0.76-1.33,1.36-2.38
			l0.12-0.21l-0.19-0.15c-0.93-0.74-1.62-1.29-2.06-1.65c-0.7-0.58-1.51-1.26-2.39-2.03l-0.27-0.24l-5.12,10.23L541.88,307.57z"/>
		<path class="st1" d="M557.49,317.87c-2.09,1.49-3.61,2.55-4.51,3.15l-0.26,0.17l0.2,0.24c0.77,0.94,1.38,1.69,1.79,2.22
			c0.41,0.52,0.98,1.27,1.72,2.25l0.17,0.23l0.23-0.17c1.91-1.46,3.7-2.81,5.32-4l2.44-1.8l0.48-0.34c0.12-0.05,0.83-0.28,4.16-1.14
			l14.12-3.62l-0.28-0.34c-0.88-1.08-1.5-1.84-1.84-2.27c-0.63-0.8-1.28-1.65-1.93-2.51l-0.12-0.16l-0.19,0.07
			c-0.74,0.26-1.9,0.62-3.45,1.07c-1.39,0.41-3.28,0.99-5.61,1.75c0.76-1.03,1.59-2.2,2.46-3.49c1.08-1.6,2.04-2.96,2.86-4.04
			l0.14-0.18l-0.14-0.17c-0.71-0.86-1.33-1.62-1.83-2.27c-0.53-0.67-1.19-1.53-1.96-2.56l-0.25-0.33l-9.33,15.07
			C561.03,315.32,559.56,316.39,557.49,317.87z"/>
		<path class="st1" d="M568.4,347.34l-0.31,0.04l0.07,0.3c0.25,1.07,0.42,1.86,0.51,2.34l0.93,5.17c0.22,1.18,0.51,2.23,0.85,3.13
			c0.31,0.82,0.64,1.46,0.98,1.91c0.34,0.45,0.78,0.88,1.31,1.28c0.7,0.54,1.52,0.98,2.42,1.33c0.9,0.34,1.96,0.6,3.15,0.76
			c0.86,0.11,1.8,0.17,2.8,0.17c0.36,0,0.74-0.01,1.12-0.02c1.41-0.06,2.89-0.23,4.37-0.51c1.51-0.29,2.98-0.71,4.36-1.25
			c1.39-0.54,2.58-1.18,3.56-1.89c0.99-0.72,1.76-1.55,2.29-2.44c0.53-0.9,0.83-1.84,0.87-2.78c0.05-0.92-0.04-1.97-0.26-3.12
			c-0.19-0.99-0.43-2.06-0.7-3.19c-0.27-1.11-0.48-2.02-0.61-2.71c-0.14-0.72-0.28-1.58-0.43-2.58l-0.04-0.29l-2.59,0.49
			c-1.4,0.27-3.68,0.66-6.98,1.22c-4.24,0.7-7.74,1.27-10.42,1.67C573.84,346.63,571.41,346.96,568.4,347.34z M575.69,352.24
			l14.72-2.38c0.2,0.71,0.35,1.34,0.46,1.88c0.19,0.98,0.14,1.8-0.13,2.43c-0.28,0.63-0.89,1.22-1.83,1.76
			c-0.97,0.55-2.23,0.98-3.74,1.27c-1.25,0.24-2.5,0.35-3.73,0.34c-1.22-0.01-2.25-0.2-3.09-0.55c-0.81-0.34-1.39-0.81-1.72-1.38
			c-0.35-0.6-0.61-1.33-0.76-2.17C575.78,353.03,575.72,352.63,575.69,352.24z"/>
		<path class="st1" d="M571.38,365.56l-0.3-0.01l0.01,0.3c0.06,1.63,0.1,2.67,0.11,3.18l0.02,2.95l0.29-0.01
			c2.3-0.05,5.09-0.08,8.3-0.1c3.22-0.02,6.74-0.01,10.46,0.04c2.67,0.04,5.53,0.1,8.52,0.19l0.3,0.01l-0.01-0.3
			c-0.06-1.59-0.1-2.55-0.1-2.79c-0.01-0.52-0.02-1.54-0.03-3.04l0-0.29l-2.86,0.08C590.35,365.9,582.04,365.83,571.38,365.56z"/>
		<path class="st1" d="M588.08,376.06l-14.35,1.14l-2.72,0.14l-0.03,0.23c-0.21,1.62-0.35,2.68-0.43,3.25
			c-0.09,0.61-0.25,1.64-0.48,3.08l-0.03,0.21l0.2,0.09c1.72,0.79,3.23,1.5,4.47,2.11l12.89,6.38c3.17,1.58,5.98,3,8.35,4.23
			l0.36,0.19l0.05-0.4c0.17-1.39,0.3-2.33,0.36-2.81c0.11-0.75,0.27-1.76,0.47-2.99l0.04-0.22l-0.21-0.09
			c-0.8-0.33-1.39-0.58-1.73-0.73l-0.91-0.4l-14.49-6.67l-1-0.42c1.03-0.03,1.91-0.07,2.63-0.1l9.64-0.54
			c2.12-0.13,3.61-0.22,4.42-0.26c0.61-0.02,1.53-0.05,2.73-0.08l0.24-0.01l0.03-0.24c0.14-1.18,0.26-2.06,0.34-2.62
			c0.13-0.91,0.29-1.95,0.49-3.1l0.06-0.36L588.08,376.06z"/>
		<path class="st1" d="M570.17,394.92l-2.68-0.49l-0.08,0.22c-0.58,1.53-0.96,2.53-1.17,3.07c-0.23,0.58-0.61,1.52-1.18,2.88
			l-0.08,0.2l0.17,0.13c1.49,1.16,2.79,2.2,3.86,3.09l11.07,9.19c2.73,2.28,5.13,4.31,7.15,6.05l0.31,0.26l0.14-0.38
			c0.49-1.31,0.83-2.2,1-2.64c0.28-0.72,0.67-1.66,1.15-2.8l0.09-0.21l-0.18-0.13c-0.71-0.51-1.22-0.88-1.51-1.11l-0.79-0.6
			l-12.55-9.83l-0.87-0.64c1.01,0.2,1.88,0.37,2.59,0.51l9.5,1.7c2.08,0.36,3.55,0.62,4.36,0.77c0.6,0.12,1.48,0.3,2.68,0.56
			l0.24,0.05l0.08-0.23c0.41-1.11,0.73-1.94,0.93-2.47c0.34-0.85,0.74-1.83,1.19-2.9l0.14-0.33l-11.31-1.7L570.17,394.92z"/>
		<path class="st1" d="M565.2,412.95c-2.06-1.53-3.54-2.65-4.38-3.32l-0.24-0.19l-0.17,0.26c-0.66,1.02-1.18,1.83-1.56,2.39
			c-0.37,0.55-0.91,1.33-1.61,2.32l-0.16,0.23l0.23,0.16c1.99,1.38,3.82,2.66,5.44,3.83l2.46,1.76l0.47,0.35
			c0.09,0.1,0.52,0.7,2.36,3.61l7.79,12.32l0.24-0.37c0.76-1.17,1.29-2,1.6-2.45c0.57-0.85,1.17-1.72,1.8-2.61l0.12-0.17l-0.12-0.16
			c-0.47-0.63-1.17-1.62-2.08-2.96c-0.81-1.19-1.95-2.8-3.39-4.8c1.21,0.41,2.58,0.83,4.08,1.27c1.85,0.53,3.44,1.03,4.73,1.48
			l0.21,0.07l0.12-0.19c0.6-0.95,1.14-1.77,1.59-2.44c0.47-0.71,1.09-1.6,1.83-2.66l0.24-0.34l-17.21-4.24
			C568.71,415.52,567.23,414.46,565.2,412.95z"/>
		<path class="st1" d="M548.53,448.37c-1.99-3.82-3.62-6.97-4.83-9.38c-0.82-1.62-1.89-3.83-3.18-6.57l-0.13-0.28l-0.27,0.16
			c-0.94,0.57-1.64,0.97-2.06,1.21l-4.62,2.49c-1.05,0.58-1.96,1.18-2.71,1.78c-0.68,0.55-1.19,1.06-1.51,1.53
			c-0.32,0.46-0.6,1.02-0.81,1.64c-0.29,0.83-0.46,1.75-0.51,2.72c-0.05,0.96,0.04,2.05,0.26,3.22c0.22,1.17,0.58,2.44,1.07,3.76
			c0.49,1.32,1.12,2.67,1.85,3.99c0.75,1.35,1.6,2.61,2.54,3.76c0.95,1.15,1.92,2.09,2.91,2.8c1,0.72,2.02,1.19,3.04,1.42
			c0.49,0.11,0.97,0.16,1.43,0.16c0.51,0,1.01-0.06,1.48-0.19c0.89-0.24,1.86-0.65,2.89-1.22c0.89-0.49,1.83-1.05,2.81-1.66
			c0.97-0.61,1.78-1.08,2.39-1.42c0.64-0.35,1.42-0.76,2.31-1.21l0.26-0.13l-1.27-2.3C551.17,453.4,550.05,451.29,548.53,448.37z
			 M544.96,454.13c-0.61,0.41-1.16,0.75-1.65,1.02c-0.88,0.48-1.67,0.7-2.36,0.63c-0.68-0.07-1.44-0.47-2.24-1.19
			c-0.82-0.75-1.62-1.81-2.37-3.16c-0.61-1.11-1.11-2.27-1.48-3.44c-0.36-1.16-0.51-2.2-0.44-3.1c0.07-0.87,0.33-1.57,0.78-2.06
			c0.47-0.52,1.08-0.99,1.82-1.4c0.36-0.2,0.73-0.38,1.08-0.53L544.96,454.13z"/>
		<path class="st1" d="M524.08,440.95l-0.09-0.29l-0.28,0.1c-1.5,0.55-2.51,0.92-2.99,1.09l-2.8,0.93l0.09,0.27
			c0.75,2.15,1.65,4.8,2.66,7.86c1.01,3.06,2.09,6.41,3.2,9.96c0.79,2.55,1.61,5.29,2.45,8.16l0.08,0.29l0.28-0.1
			c1.46-0.54,2.39-0.88,2.62-0.96c0.49-0.17,1.46-0.5,2.88-0.96l0.27-0.09l-0.96-2.7C529.61,459.09,527.11,451.16,524.08,440.95z"/>
		<path class="st1" d="M513.79,446.75l-0.97-2.54l-0.23,0.04c-1.6,0.3-2.66,0.49-3.23,0.59c-0.6,0.1-1.61,0.26-3.08,0.48l-0.21,0.03
			l-0.03,0.21c-0.22,1.88-0.43,3.53-0.63,4.91l-2.11,14.23c-0.53,3.51-1.02,6.62-1.46,9.25l-0.07,0.4l0.4-0.08
			c1.37-0.26,2.3-0.43,2.78-0.52c0.75-0.13,1.75-0.29,2.99-0.47l0.22-0.03l0.02-0.22c0.07-0.89,0.12-1.5,0.16-1.87l0.1-0.99
			l1.89-15.83l0.09-1.08c0.35,0.97,0.65,1.8,0.91,2.47l3.48,9c0.77,1.97,1.31,3.36,1.6,4.12c0.21,0.58,0.52,1.45,0.91,2.58
			l0.08,0.23l0.24-0.05c1.17-0.23,2.04-0.39,2.6-0.48c0.9-0.15,1.94-0.32,3.1-0.49l0.36-0.05l-4.42-10.55L513.79,446.75z"/>
		<path class="st1" d="M495.83,448.81l-0.36-2.7l-0.24-0.01c-1.63-0.07-2.7-0.12-3.28-0.16c-0.62-0.04-1.67-0.12-3.1-0.23
			l-0.21-0.02l-0.07,0.2c-0.64,1.78-1.23,3.33-1.74,4.63l-5.3,13.37c-1.32,3.3-2.5,6.21-3.53,8.67l-0.16,0.37l0.41,0.02
			c1.39,0.06,2.34,0.1,2.83,0.13c0.77,0.05,1.78,0.12,3.01,0.22l0.22,0.02l0.07-0.21c0.27-0.84,0.46-1.44,0.58-1.78l0.32-0.94
			l5.45-14.98l0.33-1.03c0.12,1.02,0.23,1.9,0.32,2.62l1.33,9.56c0.3,2.1,0.51,3.57,0.62,4.38c0.07,0.61,0.17,1.5,0.3,2.72
			l0.03,0.24l0.24,0.01c1.19,0.05,2.07,0.09,2.64,0.12c0.91,0.06,1.96,0.13,3.13,0.23l0.36,0.03l-1.9-11.28L495.83,448.81z"/>
		<path class="st1" d="M478.94,444.49l0.11-0.29l-0.3-0.08c-1.2-0.31-2.1-0.55-2.76-0.74c-0.64-0.18-1.52-0.44-2.71-0.81l-0.27-0.08
			l-0.08,0.27c-0.69,2.31-1.34,4.45-1.95,6.36l-0.91,2.89l-0.18,0.56c-0.06,0.11-0.51,0.71-2.7,3.37l-9.29,11.23l0.43,0.11
			c1.36,0.36,2.31,0.61,2.82,0.76c0.98,0.28,2,0.58,3.04,0.9l0.2,0.06l0.12-0.17c0.45-0.64,1.18-1.62,2.16-2.89
			c0.88-1.15,2.06-2.73,3.51-4.72c-0.01,1.28,0.01,2.71,0.06,4.27c0.07,1.92,0.09,3.59,0.06,4.95l0,0.22l0.22,0.06
			c1.09,0.28,2.03,0.53,2.81,0.75c0.82,0.23,1.86,0.54,3.09,0.92l0.39,0.12l-1.32-17.67c0.29-1.02,0.84-2.76,1.65-5.16
			C477.96,447.25,478.56,445.5,478.94,444.49z"/>
		<path class="st1" d="M449.21,430.22l-3.79-3.63c-0.87-0.82-1.72-1.5-2.53-2.03c-0.73-0.48-1.38-0.81-1.92-0.97
			c-0.54-0.16-1.15-0.25-1.81-0.27c-0.88-0.02-1.8,0.1-2.74,0.35c-0.93,0.25-1.94,0.67-2.99,1.24c-1.05,0.57-2.14,1.3-3.25,2.18
			c-1.11,0.88-2.2,1.89-3.23,2.99c-1.05,1.13-1.99,2.33-2.79,3.58c-0.8,1.25-1.39,2.47-1.76,3.63c-0.37,1.17-0.51,2.29-0.41,3.32
			c0.1,1.04,0.42,1.97,0.93,2.76c0.5,0.77,1.19,1.57,2.05,2.37c0.74,0.69,1.56,1.42,2.44,2.16c0.87,0.74,1.58,1.35,2.09,1.83
			c0.53,0.5,1.16,1.11,1.87,1.83l0.21,0.21l1.8-1.92c0.97-1.03,2.63-2.75,4.93-5.1c3.02-3.07,5.52-5.59,7.44-7.49
			c1.29-1.28,3.06-2.98,5.26-5.05l0.23-0.21l-0.23-0.2C450.16,431.09,449.56,430.55,449.21,430.22z M442.22,432.56l-10.49,10.59
			c-0.58-0.45-1.08-0.87-1.48-1.25c-0.73-0.68-1.18-1.37-1.33-2.05c-0.15-0.67,0-1.51,0.45-2.5c0.46-1.01,1.22-2.1,2.28-3.23
			c0.87-0.93,1.81-1.76,2.82-2.47c0.99-0.7,1.94-1.17,2.82-1.37c0.36-0.09,0.71-0.13,1.03-0.13c0.43,0,0.83,0.08,1.18,0.23
			c0.64,0.28,1.27,0.72,1.89,1.3C441.69,431.98,441.96,432.27,442.22,432.56z"/>
		<path class="st1" d="M438.06,419.05l-0.19-0.24c-0.99-1.26-1.65-2.11-1.96-2.51l-1.75-2.37l-0.23,0.17
			c-1.81,1.38-4.05,3.05-6.65,4.97c-2.59,1.91-5.45,3.97-8.48,6.13c-2.17,1.54-4.53,3.17-7,4.85l-0.25,0.17l0.19,0.24
			c1.24,1.57,1.62,2.06,1.72,2.2c0.31,0.41,0.92,1.23,1.81,2.44l0.17,0.23l2.27-1.75c4.56-3.48,11.33-8.31,20.1-14.36L438.06,419.05
			z"/>
		<path class="st1" d="M429.11,411.24l2.12-1.71l-0.11-0.21c-0.79-1.43-1.3-2.38-1.57-2.88c-0.29-0.55-0.77-1.48-1.42-2.77
			l-0.1-0.19l-0.21,0.04c-1.85,0.37-3.48,0.68-4.86,0.92l-14.18,2.42c-3.51,0.59-6.62,1.09-9.24,1.49l-0.4,0.06l0.2,0.36
			c0.67,1.22,1.13,2.06,1.36,2.48c0.36,0.67,0.82,1.58,1.38,2.69l0.1,0.2l0.22-0.05c0.87-0.21,1.47-0.35,1.82-0.43l0.97-0.21
			l15.64-3.13l1.05-0.25c-0.81,0.63-1.5,1.18-2.07,1.63l-7.47,6.11c-1.62,1.34-2.78,2.29-3.42,2.8c-0.49,0.38-1.21,0.95-2.17,1.67
			l-0.19,0.15l0.12,0.21c0.58,1.04,1,1.82,1.27,2.32c0.43,0.82,0.91,1.76,1.43,2.79l0.16,0.33l8.65-7.48L429.11,411.24z"/>
		<path class="st1" d="M421.57,394.82l2.45-1.18l-0.06-0.23c-0.43-1.58-0.71-2.61-0.86-3.17c-0.15-0.6-0.4-1.59-0.74-3.02
			l-0.05-0.21L422.1,387c-1.89-0.06-3.55-0.14-4.94-0.23l-14.35-0.93c-3.54-0.24-6.68-0.47-9.34-0.69l-0.4-0.03l0.11,0.39
			c0.37,1.34,0.62,2.26,0.74,2.73c0.19,0.74,0.43,1.73,0.72,2.94l0.05,0.22l0.22,0c0.9,0,1.51,0,1.87,0l0.99,0.02l15.94,0.58l1.08,0
			c-0.93,0.43-1.73,0.8-2.39,1.11l-8.68,4.21c-1.91,0.94-3.25,1.59-3.98,1.94c-0.56,0.26-1.4,0.64-2.49,1.13l-0.22,0.1l0.07,0.23
			c0.32,1.14,0.56,2,0.7,2.55c0.23,0.89,0.48,1.91,0.74,3.04l0.08,0.35l10.15-5.28L421.57,394.82z"/>
		<path class="st1" d="M393.16,383.62l0.01,0.41l16.41-6.7c1.07-0.04,2.89-0.05,5.42-0.02c2.57,0.02,4.42,0.06,5.49,0.1l0.31,0.01
			l-0.02-0.31c-0.07-1.21-0.12-2.17-0.15-2.85c-0.02-0.66-0.05-1.61-0.07-2.83l0-0.28l-0.28,0.01c-2.41,0.06-4.65,0.09-6.65,0.11
			l-3.03,0.02l-0.22-0.01l-0.18,0.01l-0.19,0c-0.13-0.03-0.83-0.26-4.04-1.53l-13.55-5.37l0.03,0.44c0.08,1.4,0.13,2.38,0.15,2.92
			c0.04,1.02,0.07,2.08,0.08,3.17l0,0.21l0.2,0.06c0.75,0.23,1.9,0.62,3.42,1.17c1.36,0.49,3.23,1.12,5.57,1.89
			c-1.22,0.38-2.58,0.84-4.05,1.38c-1.81,0.66-3.39,1.19-4.69,1.58l-0.21,0.06l0.01,0.22c0.07,1.11,0.12,2.09,0.15,2.91
			C393.11,381.25,393.14,382.33,393.16,383.62z"/>
		<path class="st1" d="M407.62,338.84c3.84,1.92,7.01,3.52,9.42,4.76c1.61,0.83,3.78,1.99,6.43,3.45l0.27,0.15l0.12-0.29
			c0.43-1.01,0.75-1.75,0.96-2.19l2.28-4.73c0.51-1.08,0.89-2.1,1.15-3.03c0.23-0.84,0.34-1.56,0.33-2.13
			c-0.01-0.56-0.11-1.17-0.31-1.8c-0.25-0.85-0.65-1.69-1.18-2.5c-0.53-0.81-1.24-1.63-2.1-2.46c-0.86-0.82-1.9-1.63-3.08-2.42
			c-1.18-0.78-2.47-1.5-3.84-2.15c-1.39-0.65-2.83-1.17-4.26-1.55c-1.44-0.37-2.8-0.56-4-0.56c-1.23,0-2.33,0.22-3.29,0.64
			c-0.96,0.42-1.75,1.01-2.34,1.74c-0.58,0.72-1.12,1.62-1.62,2.69c-0.43,0.92-0.87,1.93-1.3,2.99c-0.43,1.06-0.8,1.92-1.1,2.55
			c-0.31,0.66-0.7,1.45-1.16,2.34l-0.13,0.26l2.38,1.12C402.53,336.33,404.67,337.37,407.62,338.84z M411.91,328.06
			c1.11,0.12,2.38,0.51,3.78,1.17c1.15,0.54,2.23,1.18,3.22,1.92c0.98,0.72,1.71,1.48,2.18,2.26c0.45,0.75,0.65,1.47,0.58,2.13
			c-0.07,0.69-0.29,1.44-0.65,2.2c-0.18,0.38-0.37,0.73-0.57,1.06l-13.32-6.7c0.25-0.69,0.5-1.29,0.73-1.79
			c0.42-0.91,0.94-1.54,1.54-1.89C409.99,328.06,410.83,327.94,411.91,328.06z"/>
		<path class="st1" d="M431.77,330.49l0.24,0.18l0.17-0.25c0.91-1.35,1.49-2.22,1.78-2.64l1.72-2.4l-0.24-0.16
			c-1.87-1.3-4.15-2.92-6.77-4.8c-2.62-1.88-5.46-3.96-8.44-6.18c-2.13-1.6-4.41-3.34-6.77-5.16l-0.24-0.19l-0.17,0.25
			c-0.87,1.3-1.42,2.12-1.56,2.31c-0.3,0.43-0.89,1.26-1.77,2.47l-0.17,0.23l2.36,1.62C416.63,319.07,423.31,324.01,431.77,330.49z"
			/>
		<path class="st1" d="M436.69,319.75l2.28,1.48l0.16-0.17c1.1-1.17,1.86-1.97,2.26-2.38c0.43-0.44,1.17-1.18,2.2-2.2l0.15-0.15
			l-0.11-0.19c-0.93-1.65-1.73-3.11-2.38-4.34l-6.67-12.74c-1.64-3.15-3.08-5.95-4.27-8.33l-0.18-0.36l-0.28,0.3
			c-0.95,1.02-1.61,1.71-1.94,2.05c-0.53,0.54-1.25,1.26-2.14,2.14l-0.16,0.16l0.12,0.19c0.46,0.74,0.78,1.28,0.97,1.6l0.5,0.86
			l7.8,13.91l0.56,0.92c-0.85-0.58-1.59-1.07-2.19-1.46l-8.12-5.23c-1.79-1.14-3.04-1.94-3.72-2.39c-0.51-0.34-1.25-0.85-2.26-1.54
			l-0.2-0.14l-0.17,0.18c-0.81,0.87-1.42,1.51-1.81,1.92c-0.64,0.66-1.39,1.41-2.21,2.22l-0.26,0.25l9.78,5.92L436.69,319.75z"/>
		<path class="st1" d="M457.45,305.9l0.18-0.11l-0.06-0.21c-0.53-1.82-0.97-3.42-1.32-4.77l-3.58-13.93
			c-0.88-3.44-1.63-6.5-2.24-9.09l-0.09-0.39l-0.34,0.22c-1.16,0.77-1.95,1.29-2.36,1.56c-0.65,0.41-1.51,0.95-2.57,1.59l-0.19,0.12
			l0.07,0.21c0.28,0.83,0.47,1.43,0.58,1.78l0.29,0.95l4.4,15.33l0.33,1.03c-0.7-0.76-1.3-1.4-1.8-1.93l-6.7-6.95
			c-1.48-1.52-2.51-2.59-3.08-3.18c-0.42-0.45-1.04-1.13-1.84-2.02l-0.16-0.18l-0.2,0.14c-0.98,0.66-1.72,1.15-2.21,1.45
			c-0.77,0.49-1.67,1.05-2.66,1.65l-0.31,0.19l8.17,8.01l10.23,10.13l1.88,1.97l0.2-0.13c1.37-0.9,2.26-1.49,2.75-1.8
			C455.33,307.2,456.22,306.65,457.45,305.9z"/>
		<path class="st1" d="M464.58,295.8c0.77,2.45,1.31,4.22,1.6,5.26l0.08,0.3l0.29-0.11c1.13-0.44,2.03-0.79,2.66-1.02
			c0.62-0.23,1.51-0.54,2.67-0.94l0.27-0.09l-0.09-0.27c-0.8-2.26-1.53-4.38-2.17-6.29l-0.96-2.87l-0.18-0.56
			c-0.01-0.13-0.01-0.87,0.2-4.31l0.91-14.55l-0.41,0.16c-1.3,0.51-2.22,0.86-2.73,1.05c-0.95,0.35-1.95,0.7-2.99,1.06l-0.19,0.07
			l0,0.21c0.01,0.78,0,2-0.05,3.61c-0.04,1.44-0.06,3.42-0.07,5.88c-0.74-1.04-1.6-2.19-2.56-3.42c-1.19-1.52-2.18-2.85-2.96-3.97
			l-0.13-0.18l-0.21,0.08c-1.04,0.41-1.95,0.76-2.72,1.04c-0.81,0.3-1.83,0.66-3.04,1.08l-0.39,0.13l11.45,13.52
			C463.24,291.66,463.82,293.39,464.58,295.8z"/>
		<circle class="st1" cx="484.96" cy="290.86" r="5.22"/>
		<circle class="st1" cx="570.15" cy="334.24" r="5.22"/>
		<path class="st1" d="M554.63,424.65c-2.89,0-5.22,2.34-5.22,5.22c0,2.89,2.34,5.22,5.22,5.22c2.89,0,5.22-2.34,5.22-5.22
			C559.85,426.99,557.51,424.65,554.63,424.65z"/>
		<circle class="st1" cx="458.4" cy="443.53" r="5.22"/>
		<path class="st1" d="M410.84,357.82c0,2.89,2.34,5.22,5.22,5.22c2.89,0,5.22-2.34,5.22-5.22s-2.34-5.22-5.22-5.22
			C413.18,352.6,410.84,354.94,410.84,357.82z"/>
	</g>
</g>
</svg>
