<?xml version="1.0" encoding="utf-8"?>
<!-- Generator: Adobe Illustrator 23.0.0, SVG Export Plug-In . SVG Version: 6.00 Build 0)  -->
<svg version="1.1" id="레이어_1" xmlns="http://www.w3.org/2000/svg" xmlns:xlink="http://www.w3.org/1999/xlink" x="0px"
	 y="0px" viewBox="0 0 847.7 656" style="enable-background:new 0 0 847.7 656;" xml:space="preserve">
<style type="text/css">
	.st0{fill:#E2E2E2;}
	.st1{fill:#FFFFFF;}
	.st2{fill:#3F3D56;}
	.st3{fill:#6C63FF;}
	.st4{fill:#2F2E41;}
	.st5{fill:#FFB8B8;}
	.st6{fill:#CCCCCC;}
</style>
<path class="st0" d="M47.6,563.5c31,22.4,71.3,23.5,110.1,20.7c5.4-0.4,10.8-0.8,16.2-1.3c0,0,0.1,0,0.1,0c0.3,0,0.5,0,0.8-0.1
	c1.1-0.1,2.2-0.2,3.3-0.3l-0.3,0.5l-0.8,1.5c0.3-0.5,0.6-1,0.9-1.5c0.1-0.2,0.2-0.3,0.3-0.5c10.1-17.5,20.1-35.7,22.6-55.7
	c2.6-20.8-4.8-44.3-23-54.5c-2.4-1.3-4.9-2.4-7.6-3.2c-1.1-0.3-2.2-0.6-3.3-0.8c-21.3-4.7-42.4,8.7-47.2,30
	c-1.6,7.1-1.2,14.5,1.2,21.4c-15.5-15.9-12.6-41.7-7.3-63.2c5.4-21.5,11.8-45.5,0.9-64.9c-6.1-10.8-16.7-17.5-28.7-20.1
	c-0.4-0.1-0.7-0.2-1.1-0.2c-14.2-2.9-29-0.3-41.5,7.3C20.4,393,8.7,420.3,4.9,447C-1.3,490.1,12.3,538.1,47.6,563.5z"/>
<path class="st1" d="M57.6,494.5c0.9,9.5,3.2,18.8,6.8,27.6c3.3,7.8,7.8,15.1,13.2,21.6c11.2,13.4,25.9,23.5,41.9,30.2
	c12.2,5,25.1,8.5,38.2,10.3c5.4-0.4,10.8-0.8,16.2-1.3c0,0,0.1,0,0.1,0c0.3,0,0.5,0,0.8-0.1c1.1-0.1,2.2-0.2,3.3-0.3l-0.3,0.5
	l-0.8,1.5c0.3-0.5,0.6-1,0.9-1.5c0.1-0.2,0.2-0.3,0.3-0.5c-19.9-19.9-29-48.2-24.3-76c2.4-13.6,8-26.4,16.3-37.4
	c-1.1-0.3-2.2-0.6-3.3-0.8c-3.2,4.3-5.9,8.9-8.3,13.7c-8.4,17.1-11.1,36.6-7.7,55.3c3.2,17,11.2,32.7,23,45.4
	c-1-0.1-2.1-0.2-3.1-0.3c-19.4-1.6-38.8-5.8-56.4-14.4c-15-7.1-28.1-17.8-38-31.2c-10.7-14.7-15.4-32.4-16.2-50.4
	c-0.9-19.2,1.6-38.8,6-57.5c4.5-19.2,11.3-37.7,20.3-55.3c0.4-0.8,0.1-1.8-0.7-2.3c-0.3-0.2-0.7-0.3-1.1-0.2
	c-0.4,0.1-0.7,0.4-0.8,0.7c-1.1,2.2-2.2,4.3-3.2,6.5c-8.7,18.2-15.1,37.5-19.1,57.3C57.7,455,55.6,475.1,57.6,494.5z"/>
<path class="st2" d="M828.8,548.2H419.5c-8.8,0-15.9-7.1-15.9-15.9V35.9c0-8.8,7.1-15.9,15.9-15.9h409.3c8.8,0,15.9,7.1,15.9,15.9
	v496.4C844.7,541.1,837.6,548.2,828.8,548.2z M419.5,21.9c-7.8,0-14,6.3-14,14v496.4c0,7.8,6.3,14,14,14h409.3c7.8,0,14-6.3,14-14
	V35.9c0-7.8-6.3-14-14-14H419.5z"/>
<rect x="404.5" y="59" class="st2" width="439.2" height="1.9"/>
<circle class="st2" cx="426.1" cy="40.6" r="7.5"/>
<circle class="st2" cx="449.5" cy="40.6" r="7.5"/>
<circle class="st2" cx="472.9" cy="40.6" r="7.5"/>
<path class="st2" d="M765.3,133.3H473.1c-6.7,0-12.2-5.5-12.2-12.2s5.5-12.2,12.2-12.2h292.2c6.7,0,12.2,5.5,12.2,12.2
	S772.1,133.3,765.3,133.3z M473.1,110.8c-5.7,0-10.3,4.6-10.3,10.3s4.6,10.3,10.3,10.3h292.2c5.7,0,10.3-4.6,10.3-10.3
	s-4.6-10.3-10.3-10.3H473.1z"/>
<path class="st2" d="M582.5,304.7H467.3c-8.8,0-15.9-7.1-15.9-15.9v-94.6c0-8.8,7.1-15.9,15.9-15.9h115.2c8.8,0,15.9,7.1,15.9,15.9
	v94.6C598.4,297.6,591.3,304.7,582.5,304.7z M467.3,180.1c-7.8,0-14,6.3-14,14v94.6c0,7.8,6.3,14,14,14h115.2c7.8,0,14-6.3,14-14
	v-94.6c0-7.8-6.3-14-14-14H467.3z"/>
<path class="st0" d="M665.8,183H781c8.3,0,15,6.7,15,15v94.6c0,8.3-6.7,15-15,15H665.8c-8.3,0-15-6.7-15-15v-94.6
	C650.8,189.7,657.5,183,665.8,183z"/>
<path class="st2" d="M582.5,480.8H467.3c-8.8,0-15.9-7.1-15.9-15.9v-94.6c0-8.8,7.1-15.9,15.9-15.9h115.2c8.8,0,15.9,7.1,15.9,15.9
	v94.6C598.4,473.6,591.3,480.8,582.5,480.8z M467.3,356.2c-7.8,0-14,6.3-14,14v94.6c0,7.8,6.3,14,14,14h115.2c7.8,0,14-6.3,14-14
	v-94.6c0-7.8-6.3-14-14-14H467.3z"/>
<path class="st0" d="M665.8,359H781c8.3,0,15,6.7,15,15v94.6c0,8.3-6.7,15-15,15H665.8c-8.3,0-15-6.7-15-15V374
	C650.8,365.7,657.5,359,665.8,359z"/>
<path class="st3" d="M496.2,281.8C496.2,281.8,496.2,281.8,496.2,281.8l-13.2-0.5c-0.8,0-1.5-0.7-1.6-1.5c-0.9-8-4.6-49,10.9-66.1
	c4.5-5,10.9-7.7,17.6-7.4c0.3,0,0.5-0.1,0.7-0.4l3.2-5c0.4-0.6,1-0.9,1.6-0.8c2.5,0.3,15.5,1.8,21,0.2c0.7-0.2,1.4,0,1.8,0.6
	l4.2,5.1c0.1,0.2,0.4,0.3,0.6,0.3c2.1,0,9.5,0.4,16,7.6c7,7.9,14.3,25.6,8.9,65.6c-0.1,0.8-0.8,1.5-1.7,1.5h-10.3
	c-0.8,0-1.6-0.6-1.7-1.5l-3.4-23.3c-0.1-0.4-0.5-0.7-0.9-0.7c-0.4,0.1-0.7,0.4-0.7,0.7l-0.2,10.9c0,0.7-0.4,1.3-1,1.5
	c-3.7,1.6-23.1,9.2-44.6-0.3c-0.6-0.3-1-0.8-1-1.5l-0.4-9.9c0-0.4-0.4-0.8-0.8-0.7c-0.4,0-0.7,0.3-0.7,0.7l-2.6,23.2
	C497.8,281.2,497.1,281.8,496.2,281.8z"/>
<path class="st3" d="M550.4,453.2L550.4,453.2l-51.4-0.3c-0.8,0-1.4-0.6-1.5-1.4l-5.2-43.9c-0.1-0.6-0.6-1-1.1-1.1
	c-4.1-0.1-13.8-1.1-15.8-6.8c-1.8-5.1,3.1-12.7,14.5-22.4c0.6-0.6,1.6-0.5,2.2,0.2c0.1,0.2,0.2,0.4,0.3,0.6l5.9,20.5
	c0.1,0.5,0.6,0.9,1.1,0.9l48.7,0.3c0.5,0,1-0.3,1.1-0.8l6.6-21c0.3-0.8,1.1-1.3,1.9-1c0.2,0.1,0.3,0.1,0.5,0.2
	c4.5,3.4,19,15.3,16.6,22.8c-1.3,4-6.9,6.2-16.8,6.6c-0.6,0-1.1,0.5-1.1,1.1l-5.2,44.2C551.8,452.6,551.2,453.2,550.4,453.2z"/>
<path class="st1" d="M775.4,268.3c-16.1,3.1-31.3,9.8-44.5,19.7c-0.7-1.8-1.9-3.3-3.5-4.2c-1.1-0.7-2.3-1.2-3.6-1.5
	c-1.2-0.3-2.3,0.4-3.3,1.4c-1.2,1.3-2.2,2.8-2.9,4.3c-17.6-12.1-44.4-19.8-44.4-19.8v-2.4c0-0.6,0.1-1.1,0.2-1.7
	c0.1-0.7,0.2-1.2,0.3-1.9c2.3-11.5,11.2-37.9,11.2-37.9h10.1l19.7,4.1l22.1-1.4l22.3-4.6l2.9-0.6c4.8,3.8,10.3,30.3,12.4,41.5
	c0.3,1.4,0.5,2.6,0.6,3.5C775.3,267.7,775.4,268.3,775.4,268.3z"/>
<path class="st1" d="M714.9,384.5L714.9,384.5c0,0-4.7,1.2-12,21c-7.3,19.8-9.9,45.4-9.9,45.4s-4.1,7,13.4,7.4c0,0-1.4,4.6,8.5,3.9
	c9.9-0.7,8.5-0.7,8.5-0.7s6.4-4,9.2-3.3c2.8,0.7,4.6,0.9,7.7,3.5c3.1,2.6,12.8,1.5,13-0.5c0.1-1,0.1-2,0-3c0,0,15,0.9,12.1-9.9
	c-2.8-10.8-5.2-28.6-5.2-28.6s-7.7-34.8-16.4-35.2S714.9,384.5,714.9,384.5z"/>
<circle class="st4" cx="229.7" cy="195.1" r="35.2"/>
<circle class="st5" cx="232.7" cy="201.5" r="28.8"/>
<path class="st5" d="M342.6,289.3c-0.5,0.5-0.9,1-1.3,1.5l-58.2-2.1l-6.7-12.5l-20.2,7.6l9.6,23.3c1.6,3.9,5.6,6.2,9.7,5.7l65.9-7.2
	c4.2,5.4,11.9,6.4,17.3,2.2c5.4-4.2,6.4-11.9,2.2-17.3c-4.2-5.4-11.9-6.4-17.3-2.2C343.3,288.6,342.9,288.9,342.6,289.3L342.6,289.3
	z"/>
<path class="st6" d="M248.5,295c-1.5-0.7-2.6-2-3.1-3.5l-8.1-27.2c-3.7-7.9-0.3-17.2,7.6-20.9c7.8-3.7,17.2-0.3,20.9,7.5l15.7,23.8
	c1.7,2.6,1,6.1-1.6,7.8c-0.2,0.2-0.5,0.3-0.7,0.4L253.2,295C251.7,295.7,250,295.7,248.5,295z"/>
<polygon class="st5" points="305.8,571.3 318.5,564.5 298,512.4 279.3,522.6 "/>
<path class="st4" d="M300.4,569l24.9-13.6l0,0c8.8-4.8,19.7-1.5,24.5,7.2c0,0,0,0,0,0l0.3,0.5l-40.8,22.2L300.4,569z"/>
<polygon class="st5" points="166.7,571.4 181.1,571.4 187.9,515.9 166.7,515.9 "/>
<path class="st4" d="M163,566.7l28.4,0h0c10,0,18.1,8.1,18.1,18.1c0,0,0,0,0,0v0.6l-46.4,0L163,566.7z"/>
<path class="st4" d="M256.2,324.9l4.7,56.4l52.4,157.2c0.8,2.5-0.5,5.1-3,5.9c-0.1,0-0.3,0.1-0.4,0.1l-16.1,3.8
	c-2.1,0.5-4.3-0.5-5.3-2.5l-67-132.9c-0.6-1.2-2-1.6-3.2-1c-0.6,0.3-1.1,0.9-1.2,1.6l-29.5,134.3c-0.5,2.2-2.4,3.7-4.6,3.7h-14.9
	c-2.6,0-4.7-2.1-4.7-4.7c0,0,0-0.1,0-0.1c1.4-93.1-3.1-199.3,32.8-216.1l5.9-15.3L256.2,324.9z"/>
<path class="st6" d="M200.4,319.5l-6.1-36.6c-2-12.2,2.3-24.6,11.5-32.9c9-8.2,21.5-11.3,33.3-8.1c0.3,0.1,0.7,0.2,1,0.3
	c14.6,4.2,25,17,26.1,32.1c1.2,15.9,0.1,39-11.4,58.6l-0.2,0.4L200.4,319.5z"/>
<path class="st4" d="M261.4,186.2c-6.6,4.5-14.4,7-22.4,6.9c2.9,2,6.1,3.3,9.5,3.9c-10.6,2.3-21.6,2.3-32.3,0.2
	c-2.4-0.4-4.7-1.2-6.8-2.3c-2.1-1.2-3.6-3.2-4.2-5.6c-0.7-4.1,2.4-7.7,5.7-10.2c10.2-7.6,23.2-10.2,35.5-7.1c4,1,7.9,2.8,10.5,5.9
	c2.6,3.2,3.3,8.1,0.9,11.4L261.4,186.2z"/>
<path class="st4" d="M229.3,159.7c3.3-13.5-8.6-28.5-22.5-28.2c-14.1,0.3-24.5,13-31.6,25.2c-7.1,12.2-14.2,26-27.3,31.2
	c-14.5,5.8-30.9-1.2-36.7-15.7c-1.4-3.5-2.1-7.3-2-11.2c-1.8,14.8,0.7,30.8,10.2,42.2c9.5,11.4,27.3,16.6,40,8.9
	c7.3-4.4,11.9-12,15.8-19.6c3.8-7.6,7.3-15.6,13.1-21.8s14.8-10.3,22.9-7.7c3.2,1,6.1,3.1,9.4,3.7c3.3,0.6,7.5-1,8-4.3L229.3,159.7z
	"/>
<path class="st5" d="M159.7,404.5c-4.5-5.3-3.9-13.3,1.4-17.8c0.6-0.5,1.2-0.9,1.8-1.3l25-112.2l25.4,10.4l-32.6,107
	c3.1,6.3,0.6,13.9-5.7,17C169.9,410.3,163.5,409,159.7,404.5L159.7,404.5z"/>
<path class="st6" d="M178.1,289.4c-0.8-1.4-1-3.1-0.4-4.7l9.6-26.7c1.7-8.5,10-14,18.5-12.3c8.5,1.7,14,9.9,12.3,18.4l-1.5,28.5
	c-0.2,3.1-2.8,5.5-5.9,5.4c-0.3,0-0.6,0-0.8-0.1l-28-5.6C180.3,291.8,178.9,290.8,178.1,289.4z"/>
<path id="b06866c4-d0b9-420f-a9d2-389dd10be0a8-3193" class="st2" d="M383.1,276.8l-0.4-0.1l1.6-11.4c0.5-3.7-2.1-7-5.7-7.5
	l-24.2-3.3c-3.7-0.5-7,2.1-7.5,5.7l-8.6,62.7c-0.5,3.7,2.1,7,5.7,7.5l24.2,3.3c3.7,0.5,7-2.1,7.5-5.7l5.9-43.1l0.4,0.1L383.1,276.8z
	"/>
<path id="fb337c3c-e64d-4daa-8f83-1de4a3033e68-3194" class="st1" d="M377.8,261.1l-3-0.4c0.3,1.2-0.4,2.4-1.6,2.7
	c-0.3,0.1-0.6,0.1-0.9,0l-13.2-1.8c-1.2-0.2-2.1-1.3-1.9-2.5c0-0.3,0.1-0.6,0.3-0.8l-2.8-0.4c-2.6-0.4-5,1.5-5.4,4.1l0,0l-8.2,59.7
	c-0.4,2.6,1.5,5,4.1,5.4c0,0,0,0,0,0l23.2,3.2c2.6,0.4,5-1.5,5.4-4.1l0,0l0,0l8.2-59.7C382.2,263.9,380.4,261.5,377.8,261.1
	L377.8,261.1z"/>
<circle class="st3" cx="361.3" cy="297.7" r="12.9"/>
<path class="st1" d="M360.1,302.7c-0.3,0-0.6-0.1-0.8-0.3l0,0l-3-2.3c-0.6-0.5-0.7-1.3-0.3-1.9c0.5-0.6,1.3-0.7,1.9-0.3c0,0,0,0,0,0
	l2,1.5l4.6-6.1c0.5-0.6,1.3-0.7,1.9-0.2c0,0,0,0,0,0l0,0l0,0c0.6,0.5,0.7,1.3,0.2,1.9l-5.5,7.1C360.9,302.5,360.5,302.7,360.1,302.7
	z"/>
</svg>
