<?xml version="1.0" encoding="utf-8"?>
<!-- Generator: Adobe Illustrator 23.0.0, SVG Export Plug-In . SVG Version: 6.00 Build 0)  -->
<svg version="1.1" id="레이어_1" xmlns="http://www.w3.org/2000/svg" xmlns:xlink="http://www.w3.org/1999/xlink" x="0px"
	 y="0px" viewBox="0 0 1000 1000" style="enable-background:new 0 0 1000 1000;" xml:space="preserve">
<g>
	<path d="M718.1,370.49l-86.91-86.91c-8.75-8.75-21.51-12.17-33.47-8.97l-118.73,31.81c-11.96,3.2-21.3,12.54-24.5,24.5
		l-31.81,118.73c-3.2,11.96,0.21,24.72,8.97,33.47l20.77,20.77l-50.09,50.09l-0.85-0.85c-7.19-7.18-17.66-9.99-27.47-7.36
		L309.69,563c-9.82,2.63-17.48,10.3-20.11,20.11l-17.23,64.3c-2.63,9.81,0.18,20.29,7.36,27.47l47.07,47.07
		c7.19,7.19,17.66,9.99,27.47,7.36l64.3-17.23c9.82-2.63,17.48-10.3,20.11-20.11l17.23-64.3c2.63-9.81-0.18-20.29-7.36-27.47
		l-4.94-4.94l50.09-50.09l24.86,24.86c8.75,8.75,21.51,12.17,33.47,8.97l118.73-31.81c11.96-3.2,21.3-12.54,24.5-24.5l31.81-118.73
		C730.27,392.01,726.85,379.25,718.1,370.49z"/>
	<g>
		<path d="M513,144.38l24.57,3.33c4.32,0.54,8.37,0.81,12.07,0.81c1.1,0,2.17-0.02,3.21-0.07c4.13-0.2,7.5-0.75,10.02-1.63
			c2.52-0.88,5.1-2.23,7.66-4.01c3.42-2.37,6.62-5.39,9.49-8.96c2.85-3.55,5.53-7.94,7.96-13.03c2.42-5.08,4.55-10.92,6.35-17.36
			c1.79-6.44,3.15-13.29,4.03-20.38c0.9-7.22,1.14-14.42,0.72-21.41c-0.42-7.01-1.55-13.32-3.34-18.76
			c-1.82-5.5-4.39-10.16-7.66-13.84c-3.29-3.71-7.07-6.39-11.23-7.96c-4.05-1.54-8.91-2.66-14.42-3.35
			c-4.76-0.59-9.92-1.09-15.34-1.47c-5.37-0.38-9.77-0.79-13.07-1.19c-3.39-0.42-7.5-1.02-12.2-1.8l-1.37-0.22l-1.53,12.33
			c-0.82,6.59-2.39,17.74-4.67,33.14c-2.98,20.03-5.53,36.6-7.6,49.24c-1.38,8.47-3.42,19.89-6.07,33.92l-0.27,1.45l1.47,0.13
			C506.97,143.73,510.75,144.1,513,144.38z M533.19,116.03l10.64-69.58c3.47,0.13,6.54,0.35,9.11,0.67
			c4.69,0.58,8.31,1.97,10.75,4.14c2.42,2.15,4.18,5.78,5.23,10.77c1.08,5.14,1.17,11.42,0.27,18.66
			c-0.74,5.94-2.05,11.75-3.91,17.27c-1.83,5.44-4.17,9.84-6.95,13.07c-2.7,3.14-5.63,5.06-8.71,5.72
			c-3.22,0.69-6.87,0.78-10.84,0.29C536.85,116.79,534.97,116.45,533.19,116.03z"/>
		<path d="M586.51,156.1l1.37,0.39c7.43,2.11,12.16,3.47,14.45,4.16l13.27,4.22l0.39-1.3c3.11-10.32,7.04-22.91,11.66-37.41
			c4.63-14.5,9.82-30.29,15.43-46.92c4.05-11.9,8.53-24.67,13.31-37.95l0.48-1.34l-1.37-0.39c-6.94-1.97-11.56-3.29-12.67-3.62
			c-2.32-0.7-6.93-2.15-13.68-4.32l-1.3-0.42l-3.84,12.97c-7.82,25.93-20.28,63.14-37.03,110.59L586.51,156.1z"/>
		<path d="M639.02,173.57l1.01,0.48c6.84,3.24,11.54,5.5,13.98,6.7c2.61,1.29,6.9,3.48,13.09,6.69l0.9,0.47l0.69-0.75
			c6.06-6.57,11.46-12.28,16.04-16.97l47.57-48.47c11.79-11.96,22.3-22.48,31.25-31.26l1.37-1.34l-1.73-0.82
			c-5.98-2.82-10.04-4.76-12.05-5.75c-3.25-1.61-7.53-3.79-12.71-6.5l-0.94-0.49l-0.69,0.81c-2.66,3.12-4.61,5.37-5.8,6.69
			l-3.12,3.49l-51.19,55.22l-3.34,3.86c1.35-4.66,2.49-8.67,3.4-11.97l11.71-44.05c2.53-9.7,4.32-16.5,5.33-20.19
			c0.8-2.82,2-6.88,3.66-12.39l0.33-1.1l-1.04-0.49c-5.07-2.37-8.86-4.17-11.26-5.36c-3.91-1.93-8.35-4.2-13.18-6.73l-1.52-0.8
			l-12.43,52.56l-15.98,66.07L639.02,173.57z"/>
		<path d="M716.67,203.16l-6.12,11.3l0.87,0.7c6.03,4.82,9.97,8,12.06,9.73c2.26,1.87,6.03,5.07,11.21,9.51l0.77,0.66l0.84-0.57
			c7.41-5,13.97-9.32,19.51-12.83l57.43-36.25c14.15-8.9,26.8-16.72,37.6-23.25l1.64-0.99l-1.5-1.19c-5.16-4.1-8.66-6.92-10.41-8.37
			c-2.82-2.33-6.48-5.44-10.88-9.24l-0.8-0.69l-0.86,0.63c-3.33,2.44-5.75,4.18-7.18,5.18l-3.84,2.68l-62.5,41.99l-4.13,2.99
			c2.39-4.23,4.42-7.87,6.06-10.86l21.51-40.18c4.64-8.77,7.95-14.98,9.83-18.43c1.41-2.53,3.57-6.3,6.41-11.22l0.58-1l-0.9-0.72
			c-4.4-3.47-7.67-6.1-9.73-7.8c-3.31-2.74-7.11-5.96-11.28-9.58l-1.3-1.12l-24.16,48.3L716.67,203.16z"/>
		<path d="M790.41,251.79c-9.87,7.04-17.03,12.04-21.27,14.86l-1.23,0.82l0.94,1.14c3.65,4.44,6.5,7.96,8.47,10.47
			c1.92,2.45,4.65,6.01,8.1,10.6l0.81,1.07l1.07-0.81c9.04-6.91,17.49-13.26,25.1-18.88l11.5-8.5l2.25-1.62
			c0.56-0.26,3.91-1.3,19.66-5.37l66.66-17.1l-1.32-1.62c-4.15-5.08-7.07-8.69-8.67-10.72c-2.98-3.79-6.04-7.78-9.1-11.87
			l-0.58-0.78l-0.92,0.32c-3.51,1.21-8.99,2.91-16.3,5.05c-6.56,1.92-15.47,4.7-26.5,8.25c3.61-4.85,7.51-10.39,11.63-16.5
			c5.08-7.54,9.64-13.96,13.53-19.08l0.64-0.84l-0.67-0.81c-3.35-4.06-6.26-7.66-8.65-10.7c-2.49-3.16-5.61-7.23-9.27-12.09
			l-1.17-1.55l-44.06,71.14C807.09,239.76,800.15,244.85,790.41,251.79z"/>
		<path d="M841.9,390.97l-1.46,0.18l0.33,1.43c1.16,5.06,1.97,8.78,2.4,11.03l4.38,24.41c1.06,5.55,2.41,10.52,4,14.77
			c1.46,3.87,3.02,6.91,4.63,9.04c1.61,2.12,3.68,4.16,6.17,6.06c3.31,2.53,7.16,4.64,11.44,6.27c4.26,1.62,9.25,2.83,14.85,3.57
			c4.08,0.54,8.5,0.81,13.21,0.81c1.72,0,3.48-0.04,5.27-0.11c6.68-0.27,13.62-1.09,20.63-2.43c7.15-1.37,14.08-3.35,20.59-5.9
			c6.54-2.56,12.2-5.57,16.83-8.94c4.68-3.42,8.32-7.3,10.82-11.54c2.52-4.27,3.91-8.69,4.13-13.13c0.22-4.33-0.2-9.3-1.24-14.75
			c-0.9-4.69-2.01-9.75-3.31-15.05c-1.29-5.24-2.26-9.55-2.88-12.8c-0.65-3.38-1.33-7.47-2.04-12.17l-0.21-1.37l-12.21,2.33
			c-6.6,1.26-17.38,3.14-32.98,5.74c-20.01,3.33-36.57,5.99-49.2,7.9C867.59,387.61,856.11,389.17,841.9,390.97z M876.35,414.13
			l69.49-11.25c0.95,3.35,1.67,6.33,2.16,8.88c0.89,4.64,0.67,8.51-0.64,11.5c-1.31,2.97-4.21,5.76-8.64,8.29
			c-4.56,2.6-10.51,4.62-17.68,5.99c-5.88,1.12-11.81,1.66-17.63,1.59c-5.74-0.07-10.64-0.94-14.57-2.6
			c-3.82-1.61-6.55-3.81-8.12-6.53c-1.64-2.86-2.86-6.3-3.61-10.22C876.74,417.84,876.49,415.95,876.35,414.13z"/>
		<path d="M855.99,477.01l-1.42-0.04l0.05,1.42c0.29,7.69,0.46,12.61,0.51,15.03l0.09,13.92l1.35-0.03
			c10.84-0.23,24.02-0.39,39.19-0.48c15.21-0.08,31.83-0.03,49.39,0.17c12.59,0.18,26.11,0.48,40.21,0.92l1.43,0.04l-0.05-1.43
			c-0.29-7.49-0.45-12.04-0.47-13.17c-0.05-2.47-0.09-7.29-0.12-14.34l-0.01-1.36l-13.53,0.36
			C945.53,478.62,906.29,478.27,855.99,477.01z"/>
		<path d="M934.81,526.6l-67.76,5.36l-12.83,0.66l-0.14,1.11c-0.97,7.64-1.63,12.66-2.02,15.37c-0.41,2.87-1.18,7.75-2.28,14.52
			l-0.16,1l0.92,0.42c8.12,3.72,15.23,7.07,21.12,9.97l60.87,30.14c14.96,7.44,28.22,14.16,39.43,19.98l1.7,0.88l0.24-1.9
			c0.82-6.55,1.4-11.01,1.72-13.24c0.51-3.56,1.26-8.3,2.22-14.1l0.17-1.05l-0.98-0.4c-3.8-1.57-6.54-2.72-8.16-3.43l-4.28-1.88
			l-68.4-31.47l-4.7-1.97c4.87-0.16,9.04-0.33,12.43-0.49l45.5-2.57c10.02-0.61,17.04-1.02,20.85-1.21
			c2.89-0.11,7.24-0.24,12.91-0.37l1.15-0.03l0.14-1.14c0.67-5.55,1.21-9.71,1.59-12.37c0.62-4.3,1.39-9.22,2.3-14.62l0.28-1.69
			L934.81,526.6z"/>
		<path d="M850.25,615.61l-12.64-2.32l-0.39,1.04c-2.72,7.23-4.53,11.97-5.52,14.48c-1.07,2.72-2.9,7.16-5.58,13.6l-0.39,0.94
			l0.8,0.62c7.03,5.48,13.16,10.38,18.24,14.58l52.25,43.39c12.89,10.75,24.24,20.36,33.74,28.55l1.45,1.25l0.67-1.79
			c2.3-6.17,3.9-10.37,4.73-12.49c1.33-3.38,3.16-7.82,5.42-13.2l0.41-0.98l-0.86-0.62c-3.35-2.41-5.75-4.17-7.15-5.22l-3.73-2.82
			l-59.27-46.43l-4.12-3.01c4.77,0.96,8.86,1.77,12.21,2.39l44.87,8.02c9.82,1.71,16.74,2.93,20.56,3.64
			c2.85,0.56,6.98,1.42,12.65,2.63l1.13,0.24l0.4-1.08c1.94-5.25,3.43-9.18,4.41-11.67c1.59-4.04,3.48-8.64,5.61-13.69l0.67-1.58
			l-53.41-8.02L850.25,615.61z"/>
		<path d="M826.79,700.76c-9.74-7.23-16.7-12.5-20.69-15.66l-1.16-0.92l-0.8,1.24c-3.1,4.84-5.57,8.63-7.35,11.29
			c-1.73,2.58-4.29,6.27-7.59,10.97l-0.77,1.1l1.1,0.76c9.39,6.5,18.03,12.58,25.7,18.06l11.63,8.32l2.23,1.64
			c0.42,0.46,2.44,3.32,11.16,17.05l36.79,58.16l1.13-1.76c3.57-5.53,6.1-9.42,7.53-11.55c2.68-3.99,5.54-8.13,8.49-12.31l0.56-0.79
			l-0.58-0.78c-2.22-2.96-5.53-7.65-9.82-13.95c-3.83-5.62-9.21-13.24-16.01-22.67c5.73,1.94,12.19,3.94,19.28,5.98
			c8.73,2.51,16.24,4.87,22.31,7l1,0.35l0.57-0.89c2.85-4.47,5.38-8.35,7.51-11.53c2.24-3.34,5.15-7.55,8.65-12.54l1.12-1.59
			l-81.25-20.01C843.37,712.91,836.39,707.88,826.79,700.76z"/>
		<path d="M748.06,868.02c-9.41-18.02-17.08-32.93-22.81-44.3c-3.86-7.65-8.92-18.08-15.04-31.01l-0.63-1.33l-1.26,0.76
			c-4.45,2.68-7.73,4.6-9.74,5.71l-21.83,11.75c-4.95,2.74-9.25,5.56-12.79,8.39c-3.22,2.59-5.62,5.02-7.15,7.22
			c-1.52,2.19-2.81,4.79-3.84,7.74c-1.38,3.93-2.18,8.25-2.4,12.83c-0.22,4.55,0.19,9.67,1.23,15.22
			c1.03,5.53,2.74,11.51,5.07,17.78c2.33,6.26,5.27,12.6,8.73,18.85c3.52,6.37,7.56,12.34,12.01,17.74
			c4.46,5.42,9.09,9.87,13.73,13.21c4.7,3.38,9.52,5.63,14.34,6.69c2.31,0.51,4.56,0.76,6.76,0.76c2.42,0,4.76-0.31,7.01-0.92
			c4.18-1.14,8.77-3.08,13.63-5.77c4.19-2.32,8.65-4.95,13.27-7.83c4.6-2.86,8.39-5.12,11.27-6.72c3.01-1.67,6.69-3.59,10.93-5.72
			l1.24-0.62l-6.01-10.87C760.55,891.74,755.26,881.8,748.06,868.02z M731.23,895.2c-2.89,1.94-5.5,3.56-7.77,4.82
			c-4.14,2.29-7.88,3.29-11.13,2.97c-3.23-0.32-6.78-2.21-10.57-5.64c-3.89-3.52-7.66-8.55-11.19-14.94
			c-2.89-5.23-5.25-10.7-6.99-16.26c-1.72-5.48-2.41-10.41-2.06-14.66c0.34-4.13,1.58-7.41,3.68-9.74c2.2-2.45,5.09-4.67,8.59-6.61
			c1.71-0.95,3.43-1.78,5.12-2.48L731.23,895.2z"/>
		<path d="M632.63,832.95l-0.4-1.36l-1.33,0.49c-7.1,2.61-11.87,4.34-14.14,5.13l-13.21,4.39l0.45,1.28
			c3.55,10.17,7.78,22.66,12.56,37.12c4.78,14.46,9.87,30.28,15.1,47.02c3.72,12.02,7.61,24.99,11.55,38.52l0.4,1.37l1.34-0.49
			c6.88-2.53,11.28-4.13,12.38-4.52c2.32-0.81,6.9-2.34,13.6-4.55l1.3-0.43l-4.52-12.75C658.77,918.61,646.97,881.18,632.63,832.95z
			"/>
		<path d="M584.06,860.34l-4.57-12.01l-1.1,0.21c-7.57,1.42-12.56,2.34-15.25,2.79c-2.85,0.49-7.6,1.24-14.52,2.29l-1,0.15
			l-0.12,1.01c-1.04,8.85-2.05,16.65-3,23.16l-9.98,67.18c-2.5,16.56-4.82,31.25-6.9,43.66l-0.32,1.89l1.88-0.36
			c6.45-1.23,10.87-2.05,13.13-2.43c3.53-0.6,8.27-1.35,14.1-2.22l1.05-0.16l0.08-1.06c0.33-4.2,0.58-7.09,0.76-8.82l0.47-4.66
			l8.94-74.76l0.43-5.08c1.65,4.58,3.09,8.49,4.29,11.68l16.42,42.51c3.65,9.32,6.2,15.87,7.56,19.47c1,2.74,2.46,6.83,4.32,12.17
			l0.38,1.09l1.13-0.22c5.52-1.07,9.64-1.84,12.26-2.28c4.26-0.73,9.18-1.5,14.62-2.31l1.7-0.25l-20.85-49.82L584.06,860.34z"/>
		<path d="M499.24,870.06l-1.72-12.73l-1.11-0.05c-7.69-0.34-12.76-0.59-15.48-0.75c-2.94-0.18-7.87-0.54-14.66-1.08l-1.01-0.08
			l-0.35,0.96c-3.03,8.38-5.79,15.74-8.2,21.87l-25.03,63.14c-6.21,15.57-11.82,29.34-16.67,40.94l-0.74,1.77l1.91,0.08
			c6.56,0.27,11.04,0.48,13.34,0.62c3.63,0.22,8.42,0.58,14.23,1.06l1.06,0.09l0.32-1.01c1.26-3.95,2.19-6.78,2.75-8.41l1.52-4.43
			l25.75-70.76l1.58-4.85c0.56,4.84,1.07,8.97,1.51,12.35l6.3,45.14c1.43,9.91,2.42,16.87,2.92,20.68c0.35,2.9,0.82,7.1,1.43,12.84
			l0.12,1.15l1.15,0.04c5.6,0.22,9.79,0.41,12.46,0.57c4.29,0.26,9.26,0.63,14.76,1.09l1.71,0.14l-8.95-53.26L499.24,870.06z"/>
		<path d="M419.49,849.7l0.51-1.38l-1.43-0.37c-5.68-1.47-9.93-2.61-13.01-3.48c-3.01-0.85-7.19-2.1-12.79-3.81l-1.28-0.39
			l-0.38,1.29c-3.25,10.92-6.35,21.02-9.19,30.03l-4.3,13.64l-0.86,2.63c-0.3,0.53-2.39,3.34-12.74,15.9l-43.85,53.03l2.02,0.53
			c6.43,1.69,10.91,2.89,13.32,3.57c4.62,1.3,9.44,2.73,14.34,4.25l0.93,0.29l0.56-0.8c2.12-3.03,5.56-7.63,10.21-13.67
			c4.17-5.41,9.74-12.89,16.58-22.26c-0.06,6.04,0.04,12.81,0.3,20.18c0.32,9.08,0.42,16.94,0.28,23.38l-0.02,1.06l1.02,0.26
			c5.13,1.32,9.61,2.52,13.29,3.56c3.87,1.09,8.79,2.55,14.61,4.33l1.86,0.57l-6.21-83.45c1.37-4.82,3.99-13.02,7.78-24.36
			C414.88,862.72,417.72,854.47,419.49,849.7z"/>
		<path d="M279.11,782.32l-17.91-17.15c-4.13-3.86-8.14-7.08-11.93-9.58c-3.46-2.26-6.51-3.8-9.07-4.57
			c-2.55-0.77-5.43-1.19-8.55-1.26c-4.17-0.1-8.52,0.47-12.94,1.67c-4.4,1.19-9.14,3.17-14.1,5.86c-4.94,2.68-10.1,6.15-15.35,10.31
			c-5.24,4.15-10.37,8.9-15.24,14.12c-4.97,5.31-9.4,11-13.17,16.89c-3.78,5.92-6.59,11.68-8.33,17.14
			c-1.77,5.52-2.42,10.8-1.94,15.7c0.48,4.93,1.96,9.32,4.4,13.05c2.38,3.63,5.64,7.39,9.69,11.19c3.5,3.27,7.38,6.71,11.54,10.21
			c4.13,3.48,7.45,6.39,9.87,8.65c2.51,2.35,5.47,5.25,8.81,8.63l0.97,0.99l8.49-9.07c4.57-4.89,12.4-12.98,23.27-24.06
			c14.24-14.5,26.05-26.39,35.11-35.36c6.08-6.02,14.45-14.05,24.86-23.86l1.07-1.01l-1.11-0.97
			C283.61,786.4,280.77,783.87,279.11,782.32z M246.1,793.37l-49.53,50.02c-2.74-2.15-5.08-4.13-6.98-5.91
			c-3.45-3.23-5.56-6.48-6.26-9.67c-0.69-3.17,0.01-7.13,2.1-11.79c2.15-4.79,5.77-9.92,10.76-15.25
			c4.09-4.37,8.57-8.29,13.31-11.67c4.68-3.32,9.16-5.51,13.31-6.48c1.71-0.4,3.33-0.61,4.85-0.61c2.05,0,3.91,0.37,5.56,1.1
			c3.01,1.34,6.02,3.4,8.94,6.14C243.59,790.6,244.91,791.98,246.1,793.37z"/>
		<path d="M226.5,729.57l-0.88-1.12c-4.69-5.95-7.81-9.94-9.26-11.85l-8.27-11.2l-1.08,0.82c-8.54,6.51-19.11,14.4-31.4,23.45
			c-12.25,9.02-25.72,18.75-40.03,28.93c-10.26,7.25-21.38,14.96-33.05,22.92l-1.18,0.8l0.88,1.12c5.85,7.43,7.65,9.74,8.13,10.37
			c1.48,1.94,4.35,5.82,8.54,11.52l0.81,1.1l10.72-8.25c21.55-16.41,53.47-39.23,94.88-67.81L226.5,729.57z"/>
		<path d="M184.23,692.7l9.99-8.08l-0.54-0.98c-3.71-6.77-6.14-11.22-7.4-13.62c-1.36-2.58-3.62-6.99-6.69-13.09l-0.46-0.91l-1,0.2
			c-8.72,1.76-16.44,3.23-22.94,4.36L88.24,672c-16.55,2.79-31.24,5.15-43.64,7.02l-1.89,0.29l0.93,1.68
			c3.19,5.77,5.34,9.71,6.4,11.72c1.68,3.19,3.87,7.46,6.49,12.71l0.47,0.95l1.03-0.25c4.1-0.99,6.92-1.65,8.62-2.03l4.57-1
			l73.83-14.76l4.96-1.17c-3.82,2.98-7.09,5.56-9.76,7.71l-35.29,28.84c-7.67,6.33-13.11,10.79-16.15,13.24
			c-2.29,1.81-5.73,4.46-10.23,7.89l-0.92,0.7l0.56,1.01c2.73,4.9,4.74,8.58,5.99,10.94c2.03,3.85,4.3,8.29,6.74,13.18l0.77,1.54
			l40.86-35.32L184.23,692.7z"/>
		<path d="M148.63,615.14l11.59-5.55l-0.3-1.07c-2.05-7.45-3.37-12.34-4.05-14.96c-0.73-2.84-1.87-7.51-3.48-14.28l-0.24-0.99
			l-1.02-0.03c-8.92-0.3-16.77-0.66-23.33-1.07l-67.78-4.38c-16.73-1.12-31.56-2.21-44.08-3.26l-1.91-0.16l0.51,1.84
			c1.76,6.33,2.94,10.66,3.51,12.89c0.9,3.51,2.04,8.18,3.38,13.87l0.24,1.03l1.06,0c4.23-0.01,7.12-0.01,8.85,0.02l4.68,0.09
			l75.25,2.72l5.1,0.01c-4.39,2.01-8.17,3.77-11.28,5.24l-41.01,19.89c-9.02,4.43-15.34,7.51-18.77,9.15
			c-2.65,1.23-6.61,3.01-11.78,5.31l-1.05,0.47l0.31,1.11c1.52,5.38,2.62,9.43,3.29,12.03c1.08,4.19,2.26,9.02,3.51,14.38l0.39,1.67
			l47.92-24.91L148.63,615.14z"/>
		<path d="M14.47,562.27l0.03,1.95l77.47-31.63c5.03-0.18,13.63-0.22,25.57-0.11c12.13,0.11,20.86,0.28,25.94,0.49l1.47,0.06
			l-0.09-1.47c-0.34-5.72-0.58-10.25-0.7-13.45c-0.12-3.12-0.22-7.61-0.32-13.34l-0.02-1.34l-1.34,0.03
			c-11.39,0.27-21.95,0.44-31.41,0.51l-14.3,0.11l-1.03-0.02l-0.86,0.04l-0.88-0.02c-0.6-0.12-3.91-1.24-19.06-7.22L11,471.49
			l0.12,2.08c0.37,6.59,0.61,11.22,0.71,13.77c0.18,4.8,0.31,9.83,0.38,14.95l0.01,0.97l0.93,0.29c3.54,1.08,8.97,2.94,16.15,5.5
			c6.43,2.3,15.26,5.29,26.29,8.91c-5.77,1.8-12.18,3.99-19.1,6.51c-8.53,3.1-15.98,5.62-22.16,7.48l-1.01,0.3l0.07,1.05
			c0.32,5.24,0.56,9.86,0.71,13.74C14.24,551.06,14.37,556.19,14.47,562.27z"/>
		<path d="M82.74,350.84c18.15,9.04,33.11,16.6,44.47,22.47c7.62,3.93,17.84,9.4,30.38,16.27l1.29,0.71l0.58-1.35
			c2.04-4.79,3.56-8.27,4.53-10.34l10.77-22.33c2.4-5.11,4.22-9.93,5.43-14.3c1.08-3.99,1.6-7.37,1.55-10.04
			c-0.06-2.67-0.54-5.53-1.44-8.52c-1.2-3.99-3.08-7.96-5.58-11.79c-2.49-3.81-5.83-7.72-9.93-11.6
			c-4.08-3.87-8.98-7.71-14.55-11.41c-5.56-3.7-11.67-7.11-18.13-10.14c-6.59-3.08-13.36-5.54-20.14-7.31
			c-6.8-1.77-13.2-2.64-18.88-2.63c-5.79,0.02-11.02,1.03-15.53,3c-4.54,1.98-8.26,4.75-11.05,8.21c-2.72,3.38-5.29,7.65-7.65,12.68
			c-2.03,4.34-4.1,9.09-6.15,14.13c-2.03,5-3.77,9.05-5.18,12.06c-1.46,3.12-3.31,6.84-5.49,11.05l-0.64,1.23l11.25,5.27
			C58.71,338.97,68.83,343.91,82.74,350.84z M102.98,299.91c5.22,0.56,11.22,2.42,17.83,5.52c5.42,2.54,10.54,5.59,15.21,9.06
			c4.6,3.42,8.06,7.01,10.27,10.65c2.15,3.54,3.07,6.92,2.74,10.05c-0.34,3.28-1.38,6.78-3.08,10.4c-0.83,1.77-1.73,3.46-2.69,5.01
			L80.4,318.95c1.2-3.27,2.36-6.11,3.46-8.46c2.01-4.28,4.45-7.29,7.26-8.94C93.92,299.92,97.91,299.37,102.98,299.91z"/>
		<path d="M196.79,311.42l1.13,0.86l0.79-1.18c4.29-6.4,7.05-10.48,8.42-12.46l8.11-11.32l-1.11-0.77
			c-8.85-6.15-19.61-13.77-31.98-22.65c-12.35-8.88-25.76-18.69-39.85-29.17c-10.08-7.54-20.84-15.75-31.98-24.38l-1.13-0.87
			l-0.79,1.19c-4.1,6.12-6.72,10-7.36,10.93c-1.41,2.03-4.21,5.95-8.33,11.67l-0.8,1.11l11.15,7.66
			C125.31,257.47,156.84,280.82,196.79,311.42z"/>
		<path d="M219.98,260.71l10.77,7.01l0.76-0.81c5.18-5.5,8.77-9.28,10.67-11.24c2.03-2.09,5.53-5.59,10.38-10.4l0.72-0.72l-0.5-0.89
			c-4.39-7.79-8.17-14.68-11.22-20.48l-31.51-60.17c-7.75-14.88-14.53-28.11-20.14-39.35l-0.86-1.71l-1.31,1.4
			c-4.5,4.8-7.59,8.07-9.18,9.7c-2.5,2.57-5.9,5.97-10.09,10.1l-0.76,0.74l0.56,0.9c2.15,3.51,3.7,6.05,4.58,7.57l2.36,4.04
			l36.82,65.68l2.64,4.36c-4.03-2.73-7.49-5.04-10.34-6.91l-38.32-24.68c-8.43-5.37-14.35-9.17-17.58-11.28
			c-2.43-1.62-5.91-4.01-10.66-7.29l-0.95-0.66l-0.79,0.84c-3.81,4.09-6.69,7.14-8.56,9.07c-3.04,3.12-6.56,6.65-10.45,10.47
			l-1.22,1.2l46.2,27.97L219.98,260.71z"/>
		<path d="M318.05,195.28l0.87-0.53l-0.28-0.98c-2.49-8.58-4.58-16.15-6.23-22.51l-16.89-65.79c-4.13-16.23-7.7-30.67-10.6-42.92
			l-0.44-1.86l-1.59,1.06c-5.47,3.64-9.22,6.11-11.16,7.34c-3.06,1.96-7.14,4.49-12.13,7.52l-0.91,0.55l0.33,1.01
			c1.3,3.94,2.22,6.77,2.73,8.42l1.37,4.47l20.8,72.37l1.58,4.85c-3.31-3.59-6.15-6.63-8.49-9.1l-31.65-32.8
			c-6.98-7.16-11.87-12.21-14.53-15c-1.99-2.14-4.92-5.35-8.71-9.54l-0.77-0.86l-0.96,0.64c-4.63,3.1-8.13,5.41-10.41,6.87
			c-3.65,2.33-7.88,4.95-12.58,7.8l-1.47,0.89l38.57,37.81l48.29,47.84l8.88,9.29l0.93-0.61c6.45-4.27,10.69-7.05,12.96-8.5
			C308.02,201.46,312.22,198.85,318.05,195.28z"/>
		<path d="M351.69,147.61c3.66,11.58,6.21,19.93,7.58,24.82l0.4,1.42l1.37-0.54c5.33-2.1,9.56-3.72,12.57-4.83
			c2.91-1.07,7.15-2.56,12.59-4.44l1.27-0.44l-0.45-1.27c-3.77-10.69-7.21-20.69-10.22-29.7l-4.54-13.56l-0.85-2.64
			c-0.07-0.61-0.03-4.11,0.96-20.35l4.3-68.68l-1.94,0.76c-6.14,2.39-10.47,4.06-12.88,4.94c-4.47,1.65-9.21,3.32-14.1,4.99
			l-0.92,0.31l0.02,0.97c0.07,3.7-0.01,9.44-0.23,17.06c-0.19,6.82-0.3,16.14-0.32,27.75c-3.5-4.92-7.56-10.34-12.11-16.15
			c-5.6-7.16-10.3-13.47-13.97-18.75l-0.6-0.87l-0.98,0.39c-4.9,1.94-9.23,3.6-12.85,4.93c-3.82,1.41-8.66,3.12-14.36,5.09
			l-1.84,0.64l54.08,63.85C345.39,128.04,348.09,136.21,351.69,147.61z"/>
		<circle cx="447.9" cy="124.26" r="24.67"/>
		<circle cx="850.15" cy="329.12" r="24.67"/>
		<path d="M776.88,756.02c-13.62,0-24.67,11.04-24.67,24.67s11.04,24.67,24.67,24.67s24.67-11.04,24.67-24.67
			S790.5,756.02,776.88,756.02z"/>
		<circle cx="322.52" cy="845.17" r="24.67"/>
		<path d="M97.96,440.46c0,13.62,11.04,24.67,24.67,24.67c13.62,0,24.67-11.04,24.67-24.67s-11.04-24.67-24.67-24.67
			C109,415.79,97.96,426.84,97.96,440.46z"/>
	</g>
</g>
</svg>
