<?xml version="1.0" encoding="utf-8"?>
<!-- Generator: Adobe Illustrator 23.0.0, SVG Export Plug-In . SVG Version: 6.00 Build 0)  -->
<svg version="1.1" id="레이어_1" xmlns="http://www.w3.org/2000/svg" xmlns:xlink="http://www.w3.org/1999/xlink" x="0px"
	 y="0px" viewBox="0 0 1000 500" style="enable-background:new 0 0 1000 500;" xml:space="preserve">
<style type="text/css">
	.st0{fill:#FFFFFF;}
</style>
<g>
	<g>
		<path class="st0" d="M2.9,406.84c8.19-27.7,16.35-55.42,23.91-83.28c10.87-40.07,21.33-80.29,31.66-120.49
			c6.92-26.93,13.87-53.91,20.21-81.01c2.07-8.9,4.14-17.8,6.21-26.7c10.05,0.35,20.12,0.7,30.17,0.68
			c10.84-0.02,21.7-0.48,32.52-1.03c16.52-0.83,33.15-0.98,49.69-1.03c11.53-0.03,23.32,1.04,34.44,3.65
			c8.76,2.06,18.89,8.34,24.8,15.06c7.37,8.37,12.42,18.96,15.04,29.89c3.43,14.29,3.93,28.87,3.45,43.24
			c-0.56,17-3.39,34.43-7.21,51c-3.85,16.69-9.1,33.4-15.15,49.63c-5.5,14.76-12.24,29.5-20.07,43.01
			c-6.65,11.48-14.02,22.74-22.77,32.97c-7.5,8.77-15.93,16.78-25.25,23.62c-6.64,4.87-13.08,8.67-19.33,11.41
			c-6.25,2.74-14.5,5.06-24.52,6.62c-16.06,2.5-32.96,2.74-49.35,2.74c-20.17-0.23-40.35-0.46-60.52-0.68
			C21.53,406.19,12.21,406.51,2.9,406.84z M83.82,338.16c5.33,0.76,11.02,1.17,17,1.14c13.2-0.07,27.72-0.34,40.19-4.11
			c9.73-2.94,18.33-9.91,25.18-17.57c9.23-10.32,16.04-22.34,21.48-34.57c6.07-13.66,11.01-28.63,14.41-43.24
			c3.42-14.72,5.69-30.23,4.18-45.75c-0.9-9.34-3.77-19.76-11.17-25.9c-7.61-6.31-18.44-7-27.52-7.3
			c-12.09-0.39-25.21,0.39-37.76,1.37C114.47,220.87,99.15,279.52,83.82,338.16z"/>
		<path class="st0" d="M235.9,406.84c26.16-93.6,52.24-187.36,74.27-282.04c2.23-9.81,4.46-19.62,6.7-29.43
			c11.69,0.21,23.44,0.48,35.07,0.46c10.76-0.02,21.62-0.28,32.43-0.46c-9.21,32.34-18.32,64.79-26.99,97.2
			c-10.6,39.64-20.88,79.58-30.81,119.46c-7.85,31.53-15.58,63.14-22.96,94.81c-10.22-0.15-20.45-0.3-30.67-0.46
			C260.6,406.42,248.25,406.65,235.9,406.84z"/>
		<path class="st0" d="M385.2,406.84c0.28-9.28,0.57-18.56,0.85-27.84c0.2-53.47,0.4-106.95,0.6-160.42
			c-0.06-41.07-0.12-82.15-0.18-123.22c11.25,0.28,22.52,0.47,33.76,0.46c9.54-0.01,19.1-0.23,28.64-0.46
			c-0.6,10.27-1.25,20.61-1.64,30.82c-0.62,16.39-0.85,33.03-1.2,49.55c-0.93,36-1.87,72.01-2.8,108.01
			c-0.52,14.7-1.24,29.39-1.98,44.07c4.04-8.75,8.09-17.51,12.13-26.26c28.89-58.15,57.78-116.31,86.68-174.46
			c1.53-3.19,3.28-6.85,5.25-10.96c1.96-4.11,5.17-11.03,9.61-20.78c10.85,0.23,21.72,0.47,32.55,0.46
			c10.2-0.01,20.43-0.26,30.65-0.46c-18.36,33.61-36.39,67.43-54.31,101.31c-27.38,52.03-54.77,104.06-82.15,156.08
			c-9.36,17.89-18.42,35.97-27.41,54.08c-11.17-0.2-22.37-0.46-33.52-0.46C408.91,406.39,397.04,406.64,385.2,406.84z"/>
		<path class="st0" d="M785.2,406.84c6.06-20.78,11.5-41.8,16.97-62.75c5.41-20.74,10.93-41.53,15.52-62.52
			c-7.92-62.07-15.83-124.13-23.75-186.2c11.58,0.23,23.17,0.46,34.74,0.46c10.52,0,21.06-0.19,31.59-0.46
			c0.5,18.17,1.89,36.31,3.39,54.4c1.56,18.79,2.88,37.6,3.37,56.46c13.67-24.18,27.4-48.38,41.55-72.2
			c7.59-12.77,15.23-25.58,22.38-38.66c11.37,0.25,22.77,0.45,34.11,0.46c10.51,0.01,21.1-0.26,31.64-0.46
			c-31.17,49.21-62.33,98.42-93.5,147.64c-9.56,15.17-20.21,30.21-28.39,46.32c-0.25,0.91-0.38,1.37-0.64,2.28
			c-0.2,0.91-0.3,1.37-0.49,2.28c-0.25,0.91-0.38,1.37-0.64,2.28c-2.83,11.56-5.67,23.12-8.5,34.68
			c-6.17,25.28-12.15,50.62-18.02,75.98c-10.14-0.24-20.3-0.46-30.43-0.46C805.83,406.39,795.51,406.6,785.2,406.84z"/>
	</g>
	<g>
		<path class="st0" d="M616.16,95.78c-10.15-0.03-20.31-0.16-30.46-0.41c0.03,19.95,0.06,39.89,0.09,59.84L616.16,95.78z"/>
		<path class="st0" d="M786.7,95.83c-10.83,0.01-21.7-0.23-32.55-0.46c-4.45,9.74-7.65,16.67-9.61,20.78
			c-1.96,4.11-3.71,7.77-5.25,10.96c-28.89,58.15-57.78,116.31-86.68,174.46c-4.04,8.75-8.09,17.51-12.13,26.26
			c0.74-14.69,1.46-29.38,1.98-44.07c0.93-36,1.87-72.01,2.8-108.01c0.36-16.52,0.59-33.16,1.2-49.55
			c0.39-10.21,1.04-20.55,1.64-30.82c-6.9,0.17-13.81,0.25-20.72,0.33l-41.57,81.33c0.02,13.85,0.04,27.71,0.06,41.56
			c-0.2,53.47-0.4,106.95-0.6,160.42c-0.28,9.28-0.57,18.56-0.85,27.84c11.84-0.2,23.72-0.45,35.54-0.46
			c11.15,0,22.35,0.25,33.52,0.46c8.99-18.11,18.04-36.18,27.41-54.08c27.38-52.03,54.77-104.06,82.15-156.08
			c17.92-33.88,35.95-67.7,54.31-101.31C807.13,95.56,796.89,95.82,786.7,95.83z"/>
	</g>
</g>
</svg>
